<?xml version="1.0" encoding="UTF-8" standalone="no"?>
<svg
   width="339.59952pt"
   height="190.17574pt"
   viewBox="0 0 339.59953 190.17574"
   version="1.1"
   id="svg22"
   sodipodi:docname="quic_layers.svg"
   inkscape:version="1.4 (e7c3feb100, 2024-10-09)"
   xmlns:inkscape="http://www.inkscape.org/namespaces/inkscape"
   xmlns:sodipodi="http://sodipodi.sourceforge.net/DTD/sodipodi-0.dtd"
   xmlns="http://www.w3.org/2000/svg"
   xmlns:svg="http://www.w3.org/2000/svg"
   xmlns:rdf="http://www.w3.org/1999/02/22-rdf-syntax-ns#"
   xmlns:cc="http://creativecommons.org/ns#"
   xmlns:dc="http://purl.org/dc/elements/1.1/">
  <sodipodi:namedview
     id="namedview22"
     pagecolor="#ffffff"
     bordercolor="#000000"
     borderopacity="0.25"
     inkscape:showpageshadow="2"
     inkscape:pageopacity="0.0"
     inkscape:pagecheckerboard="0"
     inkscape:deskcolor="#d1d1d1"
     inkscape:document-units="pt"
     inkscape:zoom="2.1313589"
     inkscape:cx="226.61599"
     inkscape:cy="36.127187"
     inkscape:window-width="2536"
     inkscape:window-height="1370"
     inkscape:window-x="0"
     inkscape:window-y="0"
     inkscape:window-maximized="0"
     inkscape:current-layer="figure_1" />
  <metadata
     id="metadata1">
    <rdf:RDF>
      <cc:Work>
        <dc:type
           rdf:resource="http://purl.org/dc/dcmitype/StillImage" />
        <dc:date>1980-01-01T00:00:00+00:00</dc:date>
        <dc:format>image/svg+xml</dc:format>
        <dc:creator>
          <cc:Agent>
            <dc:title>Matplotlib v3.10.1, https://matplotlib.org/</dc:title>
          </cc:Agent>
        </dc:creator>
      </cc:Work>
    </rdf:RDF>
  </metadata>
  <defs
     id="defs1">
    <style
       type="text/css"
       id="style1">*{stroke-linejoin: round; stroke-linecap: butt}</style>
  </defs>
  <g
     id="figure_1"
     transform="translate(-7.2,-149.8318)">
    <g
       id="axes_1">
      <g
         id="patch_2">
        <path
           d="m 221.1477,340.00753 h 115.46383 q 10.18799,0 10.18799,-10.18799 v -13.58398 q 0,-10.18798 -10.18799,-10.18798 H 221.1477 q -10.18799,0 -10.18799,10.18798 v 13.58398 q 0,10.18799 10.18799,10.18799 z"
           clip-path="url(#pb19d913489)"
           style="fill-opacity:0.1"
           id="path2" />
      </g>
      <g
         id="patch_3">
        <path
           d="m 221.1477,299.25559 h 115.46383 q 10.18799,0 10.18799,-10.18799 v -13.58398 q 0,-10.18799 -10.18799,-10.18799 H 221.1477 q -10.18799,0 -10.18799,10.18799 v 13.58398 q 0,10.18799 10.18799,10.18799 z"
           clip-path="url(#pb19d913489)"
           style="fill:#b509ac;fill-opacity:0.4"
           id="path3" />
      </g>
      <g
         id="patch_4">
        <path
           d="m 221.1477,258.50364 h 115.46383 q 10.18799,0 10.18799,-10.18798 v -47.54393 q 0,-10.18799 -10.18799,-10.18799 H 221.1477 q -10.18799,0 -10.18799,10.18799 v 47.54393 q 0,10.18798 10.18799,10.18798 z"
           clip-path="url(#pb19d913489)"
           style="fill:#b509ac;fill-opacity:0.6"
           id="path4" />
      </g>
      <g
         id="patch_5">
        <path
           d="m 221.1477,183.79175 h 115.46383 q 10.18799,0 10.18799,-10.18799 v -13.58398 q 0,-10.18798 -10.18799,-10.18798 H 221.1477 q -10.18799,0 -10.18799,10.18798 v 13.58398 q 0,10.18799 10.18799,10.18799 z"
           clip-path="url(#pb19d913489)"
           style="fill:#b509ac;fill-opacity:0.4"
           id="path5" />
      </g>
      <g
         id="patch_6">
        <path
           d="m 227.93969,231.33568 h 101.87985 q 10.18799,0 10.18799,-10.18798 v -13.58398 q 0,-10.18799 -10.18799,-10.18799 H 227.93969 q -10.18799,0 -10.18799,10.18799 v 13.58398 q 0,10.18798 10.18799,10.18798 z"
           clip-path="url(#pb19d913489)"
           style="fill:#e7c000"
           id="path6" />
      </g>
      <g
         id="patch_7">
        <path
           d="m 313.85837,227.26049 h 16.97997 q 5.094,0 5.094,-5.09399 v -6.79199 q 0,-5.094 -5.094,-5.094 h -16.97997 q -5.094,0 -5.094,5.094 v 6.79199 q 0,5.09399 5.094,5.09399 z"
           clip-path="url(#pb19d913489)"
           style="fill:#e05050"
           id="path7" />
      </g>
      <g
         id="patch_8">
        <path
           d="M 17.387986,340.00753 H 132.85182 q 10.18799,0 10.18799,-10.18799 v -13.58398 q 0,-10.18798 -10.18799,-10.18798 H 17.387986 Q 7.2,306.04758 7.2,316.23556 v 13.58398 q 0,10.18799 10.187986,10.18799 z"
           clip-path="url(#pb19d913489)"
           style="fill-opacity:0.1"
           id="path8" />
      </g>
      <g
         id="patch_9">
        <path
           d="M 17.387986,299.25559 H 132.85182 q 10.18799,0 10.18799,-10.18799 v -40.75194 q 0,-10.18799 -10.18799,-10.18799 H 17.387986 Q 7.2,238.12767 7.2,248.31566 v 40.75194 q 0,10.18799 10.187986,10.18799 z"
           clip-path="url(#pb19d913489)"
           style="fill-opacity:0.1"
           id="path9" />
      </g>
      <g
         id="patch_10">
        <path
           d="M 17.387986,231.33568 H 132.85182 q 10.18799,0 10.18799,-10.18798 v -20.37597 q 0,-10.18799 -10.18799,-10.18799 H 17.387986 Q 7.2,190.58374 7.2,200.77173 v 20.37597 q 0,10.18798 10.187986,10.18798 z"
           clip-path="url(#pb19d913489)"
           style="fill:#e7c000;fill-opacity:0.8"
           id="path10" />
      </g>
      <g
         id="patch_11">
        <path
           d="M 17.387986,183.79175 H 132.85182 q 10.18799,0 10.18799,-10.18799 v -13.58398 q 0,-10.18798 -10.18799,-10.18798 H 17.387986 Q 7.2,149.8318 7.2,160.01978 v 13.58398 q 0,10.18799 10.187986,10.18799 z"
           clip-path="url(#pb19d913489)"
           style="fill-opacity:0.1"
           id="path11" />
      </g>
      <g
         id="patch_12">
        <path
           d="m 116.89065,227.26049 h 16.97997 q 5.09399,0 5.09399,-5.09399 v -6.79199 q 0,-5.094 -5.09399,-5.094 h -16.97997 q -5.094,0 -5.094,5.094 v 6.79199 q 0,5.09399 5.094,5.09399 z"
           clip-path="url(#pb19d913489)"
           style="fill:#e05050"
           id="path12" />
      </g>
      <g
         id="text_1">
        <text
           style="font-size:12px;font-family:'DejaVu Sans', 'Bitstream Vera Sans', 'Computer Modern Sans Serif', 'Lucida Grande', Verdana, Geneva, Lucid, Arial, Helvetica, 'Avant Garde', sans-serif;text-anchor:middle"
           x="278.87961"
           y="327.58661"
           id="text12">IP</text>
      </g>
      <g
         id="text_2">
        <text
           style="font-size:12px;font-family:'DejaVu Sans', 'Bitstream Vera Sans', 'Computer Modern Sans Serif', 'Lucida Grande', Verdana, Geneva, Lucid, Arial, Helvetica, 'Avant Garde', sans-serif;text-anchor:middle"
           x="278.87961"
           y="286.83469"
           id="text13">UDP</text>
      </g>
      <g
         id="text_3">
        <text
           style="font-size:12px;font-family:'DejaVu Sans', 'Bitstream Vera Sans', 'Computer Modern Sans Serif', 'Lucida Grande', Verdana, Geneva, Lucid, Arial, Helvetica, 'Avant Garde', sans-serif;text-anchor:middle"
           x="278.87961"
           y="249.47873"
           id="text14">QUIC</text>
      </g>
      <g
         id="text_4">
        <text
           style="font-size:12px;font-family:'DejaVu Sans', 'Bitstream Vera Sans', 'Computer Modern Sans Serif', 'Lucida Grande', Verdana, Geneva, Lucid, Arial, Helvetica, 'Avant Garde', sans-serif;text-anchor:middle"
           x="278.87961"
           y="171.37083"
           id="text15">HTTP/3</text>
      </g>
      <g
         id="text_5">
        <text
           style="font-size:12px;font-family:'DejaVu Sans', 'Bitstream Vera Sans', 'Computer Modern Sans Serif', 'Lucida Grande', Verdana, Geneva, Lucid, Arial, Helvetica, 'Avant Garde', sans-serif;text-anchor:middle"
           x="278.87961"
           y="218.91476"
           id="text16">TLS 1.3</text>
      </g>
      <g
         id="text_6">
        <text
           style="font-size:10px;font-family:'DejaVu Sans', 'Bitstream Vera Sans', 'Computer Modern Sans Serif', 'Lucida Grande', Verdana, Geneva, Lucid, Arial, Helvetica, 'Avant Garde', sans-serif;text-anchor:middle"
           x="322.34836"
           y="222.56972"
           id="text17">SNI</text>
      </g>
      <g
         id="text_7">
        <text
           style="font-size:12px;font-family:'DejaVu Sans', 'Bitstream Vera Sans', 'Computer Modern Sans Serif', 'Lucida Grande', Verdana, Geneva, Lucid, Arial, Helvetica, 'Avant Garde', sans-serif;text-anchor:middle"
           x="75.119904"
           y="327.58661"
           id="text18">IP</text>
      </g>
      <g
         id="text_8">
        <text
           style="font-size:12px;font-family:'DejaVu Sans', 'Bitstream Vera Sans', 'Computer Modern Sans Serif', 'Lucida Grande', Verdana, Geneva, Lucid, Arial, Helvetica, 'Avant Garde', sans-serif;text-anchor:middle"
           x="75.119904"
           y="273.2507"
           id="text19">TCP</text>
      </g>
      <g
         id="text_9">
        <text
           style="font-size:12px;font-family:'DejaVu Sans', 'Bitstream Vera Sans', 'Computer Modern Sans Serif', 'Lucida Grande', Verdana, Geneva, Lucid, Arial, Helvetica, 'Avant Garde', sans-serif;text-anchor:middle"
           x="75.119904"
           y="215.51877"
           id="text20">TLS</text>
      </g>
      <g
         id="text_10">
        <text
           style="font-size:12px;font-family:'DejaVu Sans', 'Bitstream Vera Sans', 'Computer Modern Sans Serif', 'Lucida Grande', Verdana, Geneva, Lucid, Arial, Helvetica, 'Avant Garde', sans-serif;text-anchor:middle"
           x="75.119904"
           y="171.37083"
           id="text21">HTTP/2</text>
      </g>
      <g
         id="text_11">
        <text
           style="font-size:10px;font-family:'DejaVu Sans', 'Bitstream Vera Sans', 'Computer Modern Sans Serif', 'Lucida Grande', Verdana, Geneva, Lucid, Arial, Helvetica, 'Avant Garde', sans-serif;text-anchor:middle"
           x="125.38063"
           y="222.56972"
           id="text22">SNI</text>
      </g>
    </g>
  </g>
  <defs
     id="defs22">
    <clipPath
       id="pb19d913489">
      <rect
         x="7.1999998"
         y="7.1999998"
         width="339.59952"
         height="339.59952"
         id="rect22" />
    </clipPath>
  </defs>
</svg>
