<?xml version="1.0" encoding="utf-8" standalone="no"?>
<!DOCTYPE svg PUBLIC "-//W3C//DTD SVG 1.1//EN"
  "http://www.w3.org/Graphics/SVG/1.1/DTD/svg11.dtd">
<svg xmlns:xlink="http://www.w3.org/1999/xlink" width="460.8pt" height="345.6pt" viewBox="0 0 460.8 345.6" xmlns="http://www.w3.org/2000/svg" version="1.1">
 <metadata>
  <rdf:RDF xmlns:dc="http://purl.org/dc/elements/1.1/" xmlns:cc="http://creativecommons.org/ns#" xmlns:rdf="http://www.w3.org/1999/02/22-rdf-syntax-ns#">
   <cc:Work>
    <dc:type rdf:resource="http://purl.org/dc/dcmitype/StillImage"/>
    <dc:date>2024-10-29T08:07:06.651126</dc:date>
    <dc:format>image/svg+xml</dc:format>
    <dc:creator>
     <cc:Agent>
      <dc:title>Matplotlib v3.7.1, https://matplotlib.org/</dc:title>
     </cc:Agent>
    </dc:creator>
   </cc:Work>
  </rdf:RDF>
 </metadata>
 <defs>
  <style type="text/css">*{stroke-linejoin: round; stroke-linecap: butt}</style>
 </defs>
 <g id="figure_1">
  <g id="patch_1">
   <path d="M 0 345.6 
L 460.8 345.6 
L 460.8 0 
L 0 0 
z
" style="fill: #ffffff"/>
  </g>
  <g id="axes_1">
   <g id="patch_2">
    <path d="M 57.6 307.584 
L 414.72 307.584 
L 414.72 41.472 
L 57.6 41.472 
z
" style="fill: #ffffff"/>
   </g>
   <g id="patch_3">
    <path d="M 73.832727 307.584 
L 77.047129 307.584 
L 77.047129 275.611806 
L 73.832727 275.611806 
z
" clip-path="url(#p925a989077)" style="fill: #1f77b4"/>
   </g>
   <g id="patch_4">
    <path d="M 77.079597 307.584 
L 80.293999 307.584 
L 80.293999 268.16 
L 77.079597 268.16 
z
" clip-path="url(#p925a989077)" style="fill: #1f77b4"/>
   </g>
   <g id="patch_5">
    <path d="M 80.326468 307.584 
L 83.540869 307.584 
L 83.540869 258.831156 
L 80.326468 258.831156 
z
" clip-path="url(#p925a989077)" style="fill: #1f77b4"/>
   </g>
   <g id="patch_6">
    <path d="M 83.573338 307.584 
L 86.787739 307.584 
L 86.787739 261.257143 
L 83.573338 261.257143 
z
" clip-path="url(#p925a989077)" style="fill: #1f77b4"/>
   </g>
   <g id="patch_7">
    <path d="M 86.820208 307.584 
L 90.034609 307.584 
L 90.034609 252.562641 
L 86.820208 252.562641 
z
" clip-path="url(#p925a989077)" style="fill: #1f77b4"/>
   </g>
   <g id="patch_8">
    <path d="M 90.067078 307.584 
L 93.281479 307.584 
L 93.281479 260.866914 
L 90.067078 260.866914 
z
" clip-path="url(#p925a989077)" style="fill: #1f77b4"/>
   </g>
   <g id="patch_9">
    <path d="M 93.313948 307.584 
L 96.52835 307.584 
L 96.52835 254.027257 
L 93.313948 254.027257 
z
" clip-path="url(#p925a989077)" style="fill: #1f77b4"/>
   </g>
   <g id="patch_10">
    <path d="M 96.560818 307.584 
L 99.77522 307.584 
L 99.77522 257.294514 
L 96.560818 257.294514 
z
" clip-path="url(#p925a989077)" style="fill: #1f77b4"/>
   </g>
   <g id="patch_11">
    <path d="M 99.807688 307.584 
L 103.02209 307.584 
L 103.02209 253.619782 
L 99.807688 253.619782 
z
" clip-path="url(#p925a989077)" style="fill: #1f77b4"/>
   </g>
   <g id="patch_12">
    <path d="M 103.054559 307.584 
L 106.26896 307.584 
L 106.26896 238.133868 
L 103.054559 238.133868 
z
" clip-path="url(#p925a989077)" style="fill: #1f77b4"/>
   </g>
   <g id="patch_13">
    <path d="M 106.301429 307.584 
L 109.51583 307.584 
L 109.51583 235.724768 
L 106.301429 235.724768 
z
" clip-path="url(#p925a989077)" style="fill: #1f77b4"/>
   </g>
   <g id="patch_14">
    <path d="M 109.548299 307.584 
L 112.7627 307.584 
L 112.7627 234.718428 
L 109.548299 234.718428 
z
" clip-path="url(#p925a989077)" style="fill: #1f77b4"/>
   </g>
   <g id="patch_15">
    <path d="M 112.795169 307.584 
L 116.00957 307.584 
L 116.00957 230.893481 
L 112.795169 230.893481 
z
" clip-path="url(#p925a989077)" style="fill: #1f77b4"/>
   </g>
   <g id="patch_16">
    <path d="M 116.042039 307.584 
L 119.256441 307.584 
L 119.256441 231.718029 
L 116.042039 231.718029 
z
" clip-path="url(#p925a989077)" style="fill: #1f77b4"/>
   </g>
   <g id="patch_17">
    <path d="M 119.288909 307.584 
L 122.503311 307.584 
L 122.503311 231.681747 
L 119.288909 231.681747 
z
" clip-path="url(#p925a989077)" style="fill: #1f77b4"/>
   </g>
   <g id="patch_18">
    <path d="M 122.535779 307.584 
L 125.750181 307.584 
L 125.750181 240.394343 
L 122.535779 240.394343 
z
" clip-path="url(#p925a989077)" style="fill: #1f77b4"/>
   </g>
   <g id="patch_19">
    <path d="M 125.78265 307.584 
L 128.997051 307.584 
L 128.997051 234.579823 
L 125.78265 234.579823 
z
" clip-path="url(#p925a989077)" style="fill: #1f77b4"/>
   </g>
   <g id="patch_20">
    <path d="M 129.02952 307.584 
L 132.243921 307.584 
L 132.243921 235.777232 
L 129.02952 235.777232 
z
" clip-path="url(#p925a989077)" style="fill: #1f77b4"/>
   </g>
   <g id="patch_21">
    <path d="M 132.27639 307.584 
L 135.490791 307.584 
L 135.490791 212.510242 
L 132.27639 212.510242 
z
" clip-path="url(#p925a989077)" style="fill: #1f77b4"/>
   </g>
   <g id="patch_22">
    <path d="M 135.52326 307.584 
L 138.737661 307.584 
L 138.737661 178.964227 
L 135.52326 178.964227 
z
" clip-path="url(#p925a989077)" style="fill: #1f77b4"/>
   </g>
   <g id="patch_23">
    <path d="M 138.77013 307.584 
L 141.984532 307.584 
L 141.984532 179.811924 
L 138.77013 179.811924 
z
" clip-path="url(#p925a989077)" style="fill: #1f77b4"/>
   </g>
   <g id="patch_24">
    <path d="M 142.017 307.584 
L 145.231402 307.584 
L 145.231402 128.765965 
L 142.017 128.765965 
z
" clip-path="url(#p925a989077)" style="fill: #1f77b4"/>
   </g>
   <g id="patch_25">
    <path d="M 145.26387 307.584 
L 148.478272 307.584 
L 148.478272 97.192144 
L 145.26387 97.192144 
z
" clip-path="url(#p925a989077)" style="fill: #1f77b4"/>
   </g>
   <g id="patch_26">
    <path d="M 148.510741 307.584 
L 151.725142 307.584 
L 151.725142 114.330711 
L 148.510741 114.330711 
z
" clip-path="url(#p925a989077)" style="fill: #1f77b4"/>
   </g>
   <g id="patch_27">
    <path d="M 151.757611 307.584 
L 154.972012 307.584 
L 154.972012 71.651164 
L 151.757611 71.651164 
z
" clip-path="url(#p925a989077)" style="fill: #1f77b4"/>
   </g>
   <g id="patch_28">
    <path d="M 155.004481 307.584 
L 158.218882 307.584 
L 158.218882 86.152899 
L 155.004481 86.152899 
z
" clip-path="url(#p925a989077)" style="fill: #1f77b4"/>
   </g>
   <g id="patch_29">
    <path d="M 158.251351 307.584 
L 161.465752 307.584 
L 161.465752 58.001611 
L 158.251351 58.001611 
z
" clip-path="url(#p925a989077)" style="fill: #1f77b4"/>
   </g>
   <g id="patch_30">
    <path d="M 161.498221 307.584 
L 164.712623 307.584 
L 164.712623 77.512035 
L 161.498221 77.512035 
z
" clip-path="url(#p925a989077)" style="fill: #1f77b4"/>
   </g>
   <g id="patch_31">
    <path d="M 164.745091 307.584 
L 167.959493 307.584 
L 167.959493 101.088551 
L 164.745091 101.088551 
z
" clip-path="url(#p925a989077)" style="fill: #1f77b4"/>
   </g>
   <g id="patch_32">
    <path d="M 167.991961 307.584 
L 171.206363 307.584 
L 171.206363 113.783285 
L 167.991961 113.783285 
z
" clip-path="url(#p925a989077)" style="fill: #1f77b4"/>
   </g>
   <g id="patch_33">
    <path d="M 171.238832 307.584 
L 174.453233 307.584 
L 174.453233 146.458923 
L 171.238832 146.458923 
z
" clip-path="url(#p925a989077)" style="fill: #1f77b4"/>
   </g>
   <g id="patch_34">
    <path d="M 174.485702 307.584 
L 177.700103 307.584 
L 177.700103 161.449775 
L 174.485702 161.449775 
z
" clip-path="url(#p925a989077)" style="fill: #1f77b4"/>
   </g>
   <g id="patch_35">
    <path d="M 177.732572 307.584 
L 180.946973 307.584 
L 180.946973 167.87119 
L 177.732572 167.87119 
z
" clip-path="url(#p925a989077)" style="fill: #1f77b4"/>
   </g>
   <g id="patch_36">
    <path d="M 180.979442 307.584 
L 184.193843 307.584 
L 184.193843 153.862497 
L 180.979442 153.862497 
z
" clip-path="url(#p925a989077)" style="fill: #1f77b4"/>
   </g>
   <g id="patch_37">
    <path d="M 184.226312 307.584 
L 187.440714 307.584 
L 187.440714 148.127493 
L 184.226312 148.127493 
z
" clip-path="url(#p925a989077)" style="fill: #1f77b4"/>
   </g>
   <g id="patch_38">
    <path d="M 187.473182 307.584 
L 190.687584 307.584 
L 190.687584 159.725966 
L 187.473182 159.725966 
z
" clip-path="url(#p925a989077)" style="fill: #1f77b4"/>
   </g>
   <g id="patch_39">
    <path d="M 190.720052 307.584 
L 193.934454 307.584 
L 193.934454 155.047425 
L 190.720052 155.047425 
z
" clip-path="url(#p925a989077)" style="fill: #1f77b4"/>
   </g>
   <g id="patch_40">
    <path d="M 193.966923 307.584 
L 197.181324 307.584 
L 197.181324 160.682273 
L 193.966923 160.682273 
z
" clip-path="url(#p925a989077)" style="fill: #1f77b4"/>
   </g>
   <g id="patch_41">
    <path d="M 197.213793 307.584 
L 200.428194 307.584 
L 200.428194 148.655112 
L 197.213793 148.655112 
z
" clip-path="url(#p925a989077)" style="fill: #1f77b4"/>
   </g>
   <g id="patch_42">
    <path d="M 200.460663 307.584 
L 203.675064 307.584 
L 203.675064 137.858895 
L 200.460663 137.858895 
z
" clip-path="url(#p925a989077)" style="fill: #1f77b4"/>
   </g>
   <g id="patch_43">
    <path d="M 203.707533 307.584 
L 206.921934 307.584 
L 206.921934 126.953799 
L 203.707533 126.953799 
z
" clip-path="url(#p925a989077)" style="fill: #1f77b4"/>
   </g>
   <g id="patch_44">
    <path d="M 206.954403 307.584 
L 210.168805 307.584 
L 210.168805 119.634582 
L 206.954403 119.634582 
z
" clip-path="url(#p925a989077)" style="fill: #1f77b4"/>
   </g>
   <g id="patch_45">
    <path d="M 210.201273 307.584 
L 213.415675 307.584 
L 213.415675 104.252058 
L 210.201273 104.252058 
z
" clip-path="url(#p925a989077)" style="fill: #1f77b4"/>
   </g>
   <g id="patch_46">
    <path d="M 213.448143 307.584 
L 216.662545 307.584 
L 216.662545 99.250304 
L 213.448143 99.250304 
z
" clip-path="url(#p925a989077)" style="fill: #1f77b4"/>
   </g>
   <g id="patch_47">
    <path d="M 216.695014 307.584 
L 219.909415 307.584 
L 219.909415 96.083555 
L 216.695014 96.083555 
z
" clip-path="url(#p925a989077)" style="fill: #1f77b4"/>
   </g>
   <g id="patch_48">
    <path d="M 219.941884 307.584 
L 223.156285 307.584 
L 223.156285 92.745681 
L 219.941884 92.745681 
z
" clip-path="url(#p925a989077)" style="fill: #1f77b4"/>
   </g>
   <g id="patch_49">
    <path d="M 223.188754 307.584 
L 226.403155 307.584 
L 226.403155 92.873396 
L 223.188754 92.873396 
z
" clip-path="url(#p925a989077)" style="fill: #1f77b4"/>
   </g>
   <g id="patch_50">
    <path d="M 226.435624 307.584 
L 229.650025 307.584 
L 229.650025 110.043797 
L 226.435624 110.043797 
z
" clip-path="url(#p925a989077)" style="fill: #1f77b4"/>
   </g>
   <g id="patch_51">
    <path d="M 229.682494 307.584 
L 232.896896 307.584 
L 232.896896 135.241932 
L 229.682494 135.241932 
z
" clip-path="url(#p925a989077)" style="fill: #1f77b4"/>
   </g>
   <g id="patch_52">
    <path d="M 232.929364 307.584 
L 236.143766 307.584 
L 236.143766 186.527464 
L 232.929364 186.527464 
z
" clip-path="url(#p925a989077)" style="fill: #1f77b4"/>
   </g>
   <g id="patch_53">
    <path d="M 236.176234 307.584 
L 239.390636 307.584 
L 239.390636 114.607565 
L 236.176234 114.607565 
z
" clip-path="url(#p925a989077)" style="fill: #1f77b4"/>
   </g>
   <g id="patch_54">
    <path d="M 239.423104 307.584 
L 242.637506 307.584 
L 242.637506 138.298559 
L 239.423104 138.298559 
z
" clip-path="url(#p925a989077)" style="fill: #1f77b4"/>
   </g>
   <g id="patch_55">
    <path d="M 242.669975 307.584 
L 245.884376 307.584 
L 245.884376 132.855123 
L 242.669975 132.855123 
z
" clip-path="url(#p925a989077)" style="fill: #1f77b4"/>
   </g>
   <g id="patch_56">
    <path d="M 245.916845 307.584 
L 249.131246 307.584 
L 249.131246 135.128001 
L 245.916845 135.128001 
z
" clip-path="url(#p925a989077)" style="fill: #1f77b4"/>
   </g>
   <g id="patch_57">
    <path d="M 249.163715 307.584 
L 252.378116 307.584 
L 252.378116 157.107791 
L 249.163715 157.107791 
z
" clip-path="url(#p925a989077)" style="fill: #1f77b4"/>
   </g>
   <g id="patch_58">
    <path d="M 252.410585 307.584 
L 255.624986 307.584 
L 255.624986 152.55232 
L 252.410585 152.55232 
z
" clip-path="url(#p925a989077)" style="fill: #1f77b4"/>
   </g>
   <g id="patch_59">
    <path d="M 255.657455 307.584 
L 258.871857 307.584 
L 258.871857 156.966152 
L 255.657455 156.966152 
z
" clip-path="url(#p925a989077)" style="fill: #1f77b4"/>
   </g>
   <g id="patch_60">
    <path d="M 258.904325 307.584 
L 262.118727 307.584 
L 262.118727 176.326915 
L 258.904325 176.326915 
z
" clip-path="url(#p925a989077)" style="fill: #1f77b4"/>
   </g>
   <g id="patch_61">
    <path d="M 262.151195 307.584 
L 265.365597 307.584 
L 265.365597 188.416269 
L 262.151195 188.416269 
z
" clip-path="url(#p925a989077)" style="fill: #1f77b4"/>
   </g>
   <g id="patch_62">
    <path d="M 265.398066 307.584 
L 268.612467 307.584 
L 268.612467 182.602942 
L 265.398066 182.602942 
z
" clip-path="url(#p925a989077)" style="fill: #1f77b4"/>
   </g>
   <g id="patch_63">
    <path d="M 268.644936 307.584 
L 271.859337 307.584 
L 271.859337 197.535303 
L 268.644936 197.535303 
z
" clip-path="url(#p925a989077)" style="fill: #1f77b4"/>
   </g>
   <g id="patch_64">
    <path d="M 271.891806 307.584 
L 275.106207 307.584 
L 275.106207 208.195549 
L 271.891806 208.195549 
z
" clip-path="url(#p925a989077)" style="fill: #1f77b4"/>
   </g>
   <g id="patch_65">
    <path d="M 275.138676 307.584 
L 278.353077 307.584 
L 278.353077 208.200006 
L 275.138676 208.200006 
z
" clip-path="url(#p925a989077)" style="fill: #1f77b4"/>
   </g>
   <g id="patch_66">
    <path d="M 278.385546 307.584 
L 281.599948 307.584 
L 281.599948 179.145135 
L 278.385546 179.145135 
z
" clip-path="url(#p925a989077)" style="fill: #1f77b4"/>
   </g>
   <g id="patch_67">
    <path d="M 281.632416 307.584 
L 284.846818 307.584 
L 284.846818 169.84772 
L 281.632416 169.84772 
z
" clip-path="url(#p925a989077)" style="fill: #1f77b4"/>
   </g>
   <g id="patch_68">
    <path d="M 284.879286 307.584 
L 288.093688 307.584 
L 288.093688 193.043233 
L 284.879286 193.043233 
z
" clip-path="url(#p925a989077)" style="fill: #1f77b4"/>
   </g>
   <g id="patch_69">
    <path d="M 288.126157 307.584 
L 291.340558 307.584 
L 291.340558 182.088553 
L 288.126157 182.088553 
z
" clip-path="url(#p925a989077)" style="fill: #1f77b4"/>
   </g>
   <g id="patch_70">
    <path d="M 291.373027 307.584 
L 294.587428 307.584 
L 294.587428 148.028413 
L 291.373027 148.028413 
z
" clip-path="url(#p925a989077)" style="fill: #1f77b4"/>
   </g>
   <g id="patch_71">
    <path d="M 294.619897 307.584 
L 297.834298 307.584 
L 297.834298 179.945456 
L 294.619897 179.945456 
z
" clip-path="url(#p925a989077)" style="fill: #1f77b4"/>
   </g>
   <g id="patch_72">
    <path d="M 297.866767 307.584 
L 301.081168 307.584 
L 301.081168 195.195795 
L 297.866767 195.195795 
z
" clip-path="url(#p925a989077)" style="fill: #1f77b4"/>
   </g>
   <g id="patch_73">
    <path d="M 301.113637 307.584 
L 304.328039 307.584 
L 304.328039 193.112583 
L 301.113637 193.112583 
z
" clip-path="url(#p925a989077)" style="fill: #1f77b4"/>
   </g>
   <g id="patch_74">
    <path d="M 304.360507 307.584 
L 307.574909 307.584 
L 307.574909 171.174638 
L 304.360507 171.174638 
z
" clip-path="url(#p925a989077)" style="fill: #1f77b4"/>
   </g>
   <g id="patch_75">
    <path d="M 307.607377 307.584 
L 310.821779 307.584 
L 310.821779 191.396784 
L 307.607377 191.396784 
z
" clip-path="url(#p925a989077)" style="fill: #1f77b4"/>
   </g>
   <g id="patch_76">
    <path d="M 310.854248 307.584 
L 314.068649 307.584 
L 314.068649 188.959164 
L 310.854248 188.959164 
z
" clip-path="url(#p925a989077)" style="fill: #1f77b4"/>
   </g>
   <g id="patch_77">
    <path d="M 314.101118 307.584 
L 317.315519 307.584 
L 317.315519 224.975843 
L 314.101118 224.975843 
z
" clip-path="url(#p925a989077)" style="fill: #1f77b4"/>
   </g>
   <g id="patch_78">
    <path d="M 317.347988 307.584 
L 320.562389 307.584 
L 320.562389 185.887437 
L 317.347988 185.887437 
z
" clip-path="url(#p925a989077)" style="fill: #1f77b4"/>
   </g>
   <g id="patch_79">
    <path d="M 320.594858 307.584 
L 323.809259 307.584 
L 323.809259 186.428927 
L 320.594858 186.428927 
z
" clip-path="url(#p925a989077)" style="fill: #1f77b4"/>
   </g>
   <g id="patch_80">
    <path d="M 323.841728 307.584 
L 327.05613 307.584 
L 327.05613 210.50719 
L 323.841728 210.50719 
z
" clip-path="url(#p925a989077)" style="fill: #1f77b4"/>
   </g>
   <g id="patch_81">
    <path d="M 327.088598 307.584 
L 330.303 307.584 
L 330.303 215.530717 
L 327.088598 215.530717 
z
" clip-path="url(#p925a989077)" style="fill: #1f77b4"/>
   </g>
   <g id="patch_82">
    <path d="M 330.335468 307.584 
L 333.54987 307.584 
L 333.54987 222.249205 
L 330.335468 222.249205 
z
" clip-path="url(#p925a989077)" style="fill: #1f77b4"/>
   </g>
   <g id="patch_83">
    <path d="M 333.582339 307.584 
L 336.79674 307.584 
L 336.79674 245.875229 
L 333.582339 245.875229 
z
" clip-path="url(#p925a989077)" style="fill: #1f77b4"/>
   </g>
   <g id="patch_84">
    <path d="M 336.829209 307.584 
L 340.04361 307.584 
L 340.04361 243.051553 
L 336.829209 243.051553 
z
" clip-path="url(#p925a989077)" style="fill: #1f77b4"/>
   </g>
   <g id="patch_85">
    <path d="M 340.076079 307.584 
L 343.29048 307.584 
L 343.29048 238.717955 
L 340.076079 238.717955 
z
" clip-path="url(#p925a989077)" style="fill: #1f77b4"/>
   </g>
   <g id="patch_86">
    <path d="M 343.322949 307.584 
L 346.53735 307.584 
L 346.53735 246.142976 
L 343.322949 246.142976 
z
" clip-path="url(#p925a989077)" style="fill: #1f77b4"/>
   </g>
   <g id="patch_87">
    <path d="M 346.569819 307.584 
L 349.784221 307.584 
L 349.784221 240.469009 
L 346.569819 240.469009 
z
" clip-path="url(#p925a989077)" style="fill: #1f77b4"/>
   </g>
   <g id="patch_88">
    <path d="M 349.816689 307.584 
L 353.031091 307.584 
L 353.031091 240.470542 
L 349.816689 240.470542 
z
" clip-path="url(#p925a989077)" style="fill: #1f77b4"/>
   </g>
   <g id="patch_89">
    <path d="M 353.063559 307.584 
L 356.277961 307.584 
L 356.277961 243.723932 
L 353.063559 243.723932 
z
" clip-path="url(#p925a989077)" style="fill: #1f77b4"/>
   </g>
   <g id="patch_90">
    <path d="M 356.31043 307.584 
L 359.524831 307.584 
L 359.524831 233.102663 
L 356.31043 233.102663 
z
" clip-path="url(#p925a989077)" style="fill: #1f77b4"/>
   </g>
   <g id="patch_91">
    <path d="M 359.5573 307.584 
L 362.771701 307.584 
L 362.771701 182.700408 
L 359.5573 182.700408 
z
" clip-path="url(#p925a989077)" style="fill: #1f77b4"/>
   </g>
   <g id="patch_92">
    <path d="M 362.80417 307.584 
L 366.018571 307.584 
L 366.018571 196.470896 
L 362.80417 196.470896 
z
" clip-path="url(#p925a989077)" style="fill: #1f77b4"/>
   </g>
   <g id="patch_93">
    <path d="M 366.05104 307.584 
L 369.265441 307.584 
L 369.265441 196.061711 
L 366.05104 196.061711 
z
" clip-path="url(#p925a989077)" style="fill: #1f77b4"/>
   </g>
   <g id="patch_94">
    <path d="M 369.29791 307.584 
L 372.512312 307.584 
L 372.512312 196.314004 
L 369.29791 196.314004 
z
" clip-path="url(#p925a989077)" style="fill: #1f77b4"/>
   </g>
   <g id="patch_95">
    <path d="M 372.54478 307.584 
L 375.759182 307.584 
L 375.759182 190.791286 
L 372.54478 190.791286 
z
" clip-path="url(#p925a989077)" style="fill: #1f77b4"/>
   </g>
   <g id="patch_96">
    <path d="M 375.79165 307.584 
L 379.006052 307.584 
L 379.006052 187.587171 
L 375.79165 187.587171 
z
" clip-path="url(#p925a989077)" style="fill: #1f77b4"/>
   </g>
   <g id="patch_97">
    <path d="M 379.038521 307.584 
L 382.252922 307.584 
L 382.252922 197.547485 
L 379.038521 197.547485 
z
" clip-path="url(#p925a989077)" style="fill: #1f77b4"/>
   </g>
   <g id="patch_98">
    <path d="M 382.285391 307.584 
L 385.499792 307.584 
L 385.499792 188.719167 
L 382.285391 188.719167 
z
" clip-path="url(#p925a989077)" style="fill: #1f77b4"/>
   </g>
   <g id="patch_99">
    <path d="M 385.532261 307.584 
L 388.746662 307.584 
L 388.746662 214.578764 
L 385.532261 214.578764 
z
" clip-path="url(#p925a989077)" style="fill: #1f77b4"/>
   </g>
   <g id="patch_100">
    <path d="M 388.779131 307.584 
L 391.993532 307.584 
L 391.993532 235.200848 
L 388.779131 235.200848 
z
" clip-path="url(#p925a989077)" style="fill: #1f77b4"/>
   </g>
   <g id="patch_101">
    <path d="M 392.026001 307.584 
L 395.240403 307.584 
L 395.240403 194.431702 
L 392.026001 194.431702 
z
" clip-path="url(#p925a989077)" style="fill: #1f77b4"/>
   </g>
   <g id="patch_102">
    <path d="M 395.272871 307.584 
L 398.487273 307.584 
L 398.487273 188.048044 
L 395.272871 188.048044 
z
" clip-path="url(#p925a989077)" style="fill: #1f77b4"/>
   </g>
   <g id="patch_103">
    <path d="M 73.832727 307.584 
L 77.047129 307.584 
L 77.047129 305.242886 
L 73.832727 305.242886 
z
" clip-path="url(#p925a989077)" style="fill: #ff7f0e"/>
   </g>
   <g id="patch_104">
    <path d="M 77.079597 307.584 
L 80.293999 307.584 
L 80.293999 303.76104 
L 77.079597 303.76104 
z
" clip-path="url(#p925a989077)" style="fill: #ff7f0e"/>
   </g>
   <g id="patch_105">
    <path d="M 80.326468 307.584 
L 83.540869 307.584 
L 83.540869 303.575796 
L 80.326468 303.575796 
z
" clip-path="url(#p925a989077)" style="fill: #ff7f0e"/>
   </g>
   <g id="patch_106">
    <path d="M 83.573338 307.584 
L 86.787739 307.584 
L 86.787739 302.646246 
L 83.573338 302.646246 
z
" clip-path="url(#p925a989077)" style="fill: #ff7f0e"/>
   </g>
   <g id="patch_107">
    <path d="M 86.820208 307.584 
L 90.034609 307.584 
L 90.034609 300.967075 
L 86.820208 300.967075 
z
" clip-path="url(#p925a989077)" style="fill: #ff7f0e"/>
   </g>
   <g id="patch_108">
    <path d="M 90.067078 307.584 
L 93.281479 307.584 
L 93.281479 302.165502 
L 90.067078 302.165502 
z
" clip-path="url(#p925a989077)" style="fill: #ff7f0e"/>
   </g>
   <g id="patch_109">
    <path d="M 93.313948 307.584 
L 96.52835 307.584 
L 96.52835 301.858166 
L 93.313948 301.858166 
z
" clip-path="url(#p925a989077)" style="fill: #ff7f0e"/>
   </g>
   <g id="patch_110">
    <path d="M 96.560818 307.584 
L 99.77522 307.584 
L 99.77522 301.747537 
L 96.560818 301.747537 
z
" clip-path="url(#p925a989077)" style="fill: #ff7f0e"/>
   </g>
   <g id="patch_111">
    <path d="M 99.807688 307.584 
L 103.02209 307.584 
L 103.02209 301.885508 
L 99.807688 301.885508 
z
" clip-path="url(#p925a989077)" style="fill: #ff7f0e"/>
   </g>
   <g id="patch_112">
    <path d="M 103.054559 307.584 
L 106.26896 307.584 
L 106.26896 298.162565 
L 103.054559 298.162565 
z
" clip-path="url(#p925a989077)" style="fill: #ff7f0e"/>
   </g>
   <g id="patch_113">
    <path d="M 106.301429 307.584 
L 109.51583 307.584 
L 109.51583 297.870125 
L 106.301429 297.870125 
z
" clip-path="url(#p925a989077)" style="fill: #ff7f0e"/>
   </g>
   <g id="patch_114">
    <path d="M 109.548299 307.584 
L 112.7627 307.584 
L 112.7627 296.934897 
L 109.548299 296.934897 
z
" clip-path="url(#p925a989077)" style="fill: #ff7f0e"/>
   </g>
   <g id="patch_115">
    <path d="M 112.795169 307.584 
L 116.00957 307.584 
L 116.00957 300.038911 
L 112.795169 300.038911 
z
" clip-path="url(#p925a989077)" style="fill: #ff7f0e"/>
   </g>
   <g id="patch_116">
    <path d="M 116.042039 307.584 
L 119.256441 307.584 
L 119.256441 297.335266 
L 116.042039 297.335266 
z
" clip-path="url(#p925a989077)" style="fill: #ff7f0e"/>
   </g>
   <g id="patch_117">
    <path d="M 119.288909 307.584 
L 122.503311 307.584 
L 122.503311 294.534526 
L 119.288909 294.534526 
z
" clip-path="url(#p925a989077)" style="fill: #ff7f0e"/>
   </g>
   <g id="patch_118">
    <path d="M 122.535779 307.584 
L 125.750181 307.584 
L 125.750181 295.691342 
L 122.535779 295.691342 
z
" clip-path="url(#p925a989077)" style="fill: #ff7f0e"/>
   </g>
   <g id="patch_119">
    <path d="M 125.78265 307.584 
L 128.997051 307.584 
L 128.997051 296.594124 
L 125.78265 296.594124 
z
" clip-path="url(#p925a989077)" style="fill: #ff7f0e"/>
   </g>
   <g id="patch_120">
    <path d="M 129.02952 307.584 
L 132.243921 307.584 
L 132.243921 298.270701 
L 129.02952 298.270701 
z
" clip-path="url(#p925a989077)" style="fill: #ff7f0e"/>
   </g>
   <g id="patch_121">
    <path d="M 132.27639 307.584 
L 135.490791 307.584 
L 135.490791 297.339224 
L 132.27639 297.339224 
z
" clip-path="url(#p925a989077)" style="fill: #ff7f0e"/>
   </g>
   <g id="patch_122">
    <path d="M 135.52326 307.584 
L 138.737661 307.584 
L 138.737661 297.179366 
L 135.52326 297.179366 
z
" clip-path="url(#p925a989077)" style="fill: #ff7f0e"/>
   </g>
   <g id="patch_123">
    <path d="M 138.77013 307.584 
L 141.984532 307.584 
L 141.984532 295.070897 
L 138.77013 295.070897 
z
" clip-path="url(#p925a989077)" style="fill: #ff7f0e"/>
   </g>
   <g id="patch_124">
    <path d="M 142.017 307.584 
L 145.231402 307.584 
L 145.231402 295.808424 
L 142.017 295.808424 
z
" clip-path="url(#p925a989077)" style="fill: #ff7f0e"/>
   </g>
   <g id="patch_125">
    <path d="M 145.26387 307.584 
L 148.478272 307.584 
L 148.478272 295.647449 
L 145.26387 295.647449 
z
" clip-path="url(#p925a989077)" style="fill: #ff7f0e"/>
   </g>
   <g id="patch_126">
    <path d="M 148.510741 307.584 
L 151.725142 307.584 
L 151.725142 295.844231 
L 148.510741 295.844231 
z
" clip-path="url(#p925a989077)" style="fill: #ff7f0e"/>
   </g>
   <g id="patch_127">
    <path d="M 151.757611 307.584 
L 154.972012 307.584 
L 154.972012 297.872479 
L 151.757611 297.872479 
z
" clip-path="url(#p925a989077)" style="fill: #ff7f0e"/>
   </g>
   <g id="patch_128">
    <path d="M 155.004481 307.584 
L 158.218882 307.584 
L 158.218882 294.2636 
L 155.004481 294.2636 
z
" clip-path="url(#p925a989077)" style="fill: #ff7f0e"/>
   </g>
   <g id="patch_129">
    <path d="M 158.251351 307.584 
L 161.465752 307.584 
L 161.465752 295.708388 
L 158.251351 295.708388 
z
" clip-path="url(#p925a989077)" style="fill: #ff7f0e"/>
   </g>
   <g id="patch_130">
    <path d="M 161.498221 307.584 
L 164.712623 307.584 
L 164.712623 295.069631 
L 161.498221 295.069631 
z
" clip-path="url(#p925a989077)" style="fill: #ff7f0e"/>
   </g>
   <g id="patch_131">
    <path d="M 164.745091 307.584 
L 167.959493 307.584 
L 167.959493 291.881423 
L 164.745091 291.881423 
z
" clip-path="url(#p925a989077)" style="fill: #ff7f0e"/>
   </g>
   <g id="patch_132">
    <path d="M 167.991961 307.584 
L 171.206363 307.584 
L 171.206363 294.483798 
L 167.991961 294.483798 
z
" clip-path="url(#p925a989077)" style="fill: #ff7f0e"/>
   </g>
   <g id="patch_133">
    <path d="M 171.238832 307.584 
L 174.453233 307.584 
L 174.453233 293.894093 
L 171.238832 293.894093 
z
" clip-path="url(#p925a989077)" style="fill: #ff7f0e"/>
   </g>
   <g id="patch_134">
    <path d="M 174.485702 307.584 
L 177.700103 307.584 
L 177.700103 293.810431 
L 174.485702 293.810431 
z
" clip-path="url(#p925a989077)" style="fill: #ff7f0e"/>
   </g>
   <g id="patch_135">
    <path d="M 177.732572 307.584 
L 180.946973 307.584 
L 180.946973 292.908706 
L 177.732572 292.908706 
z
" clip-path="url(#p925a989077)" style="fill: #ff7f0e"/>
   </g>
   <g id="patch_136">
    <path d="M 180.979442 307.584 
L 184.193843 307.584 
L 184.193843 294.41171 
L 180.979442 294.41171 
z
" clip-path="url(#p925a989077)" style="fill: #ff7f0e"/>
   </g>
   <g id="patch_137">
    <path d="M 184.226312 307.584 
L 187.440714 307.584 
L 187.440714 293.143938 
L 184.226312 293.143938 
z
" clip-path="url(#p925a989077)" style="fill: #ff7f0e"/>
   </g>
   <g id="patch_138">
    <path d="M 187.473182 307.584 
L 190.687584 307.584 
L 190.687584 292.329379 
L 187.473182 292.329379 
z
" clip-path="url(#p925a989077)" style="fill: #ff7f0e"/>
   </g>
   <g id="patch_139">
    <path d="M 190.720052 307.584 
L 193.934454 307.584 
L 193.934454 291.279685 
L 190.720052 291.279685 
z
" clip-path="url(#p925a989077)" style="fill: #ff7f0e"/>
   </g>
   <g id="patch_140">
    <path d="M 193.966923 307.584 
L 197.181324 307.584 
L 197.181324 295.561827 
L 193.966923 295.561827 
z
" clip-path="url(#p925a989077)" style="fill: #ff7f0e"/>
   </g>
   <g id="patch_141">
    <path d="M 197.213793 307.584 
L 200.428194 307.584 
L 200.428194 292.485787 
L 197.213793 292.485787 
z
" clip-path="url(#p925a989077)" style="fill: #ff7f0e"/>
   </g>
   <g id="patch_142">
    <path d="M 200.460663 307.584 
L 203.675064 307.584 
L 203.675064 295.103882 
L 200.460663 295.103882 
z
" clip-path="url(#p925a989077)" style="fill: #ff7f0e"/>
   </g>
   <g id="patch_143">
    <path d="M 203.707533 307.584 
L 206.921934 307.584 
L 206.921934 295.622983 
L 203.707533 295.622983 
z
" clip-path="url(#p925a989077)" style="fill: #ff7f0e"/>
   </g>
   <g id="patch_144">
    <path d="M 206.954403 307.584 
L 210.168805 307.584 
L 210.168805 294.595887 
L 206.954403 294.595887 
z
" clip-path="url(#p925a989077)" style="fill: #ff7f0e"/>
   </g>
   <g id="patch_145">
    <path d="M 210.201273 307.584 
L 213.415675 307.584 
L 213.415675 293.847614 
L 210.201273 293.847614 
z
" clip-path="url(#p925a989077)" style="fill: #ff7f0e"/>
   </g>
   <g id="patch_146">
    <path d="M 213.448143 307.584 
L 216.662545 307.584 
L 216.662545 294.185889 
L 213.448143 294.185889 
z
" clip-path="url(#p925a989077)" style="fill: #ff7f0e"/>
   </g>
   <g id="patch_147">
    <path d="M 216.695014 307.584 
L 219.909415 307.584 
L 219.909415 292.613555 
L 216.695014 292.613555 
z
" clip-path="url(#p925a989077)" style="fill: #ff7f0e"/>
   </g>
   <g id="patch_148">
    <path d="M 219.941884 307.584 
L 223.156285 307.584 
L 223.156285 291.770622 
L 219.941884 291.770622 
z
" clip-path="url(#p925a989077)" style="fill: #ff7f0e"/>
   </g>
   <g id="patch_149">
    <path d="M 223.188754 307.584 
L 226.403155 307.584 
L 226.403155 291.359627 
L 223.188754 291.359627 
z
" clip-path="url(#p925a989077)" style="fill: #ff7f0e"/>
   </g>
   <g id="patch_150">
    <path d="M 226.435624 307.584 
L 229.650025 307.584 
L 229.650025 293.502723 
L 226.435624 293.502723 
z
" clip-path="url(#p925a989077)" style="fill: #ff7f0e"/>
   </g>
   <g id="patch_151">
    <path d="M 229.682494 307.584 
L 232.896896 307.584 
L 232.896896 293.402135 
L 229.682494 293.402135 
z
" clip-path="url(#p925a989077)" style="fill: #ff7f0e"/>
   </g>
   <g id="patch_152">
    <path d="M 232.929364 307.584 
L 236.143766 307.584 
L 236.143766 294.689507 
L 232.929364 294.689507 
z
" clip-path="url(#p925a989077)" style="fill: #ff7f0e"/>
   </g>
   <g id="patch_153">
    <path d="M 236.176234 307.584 
L 239.390636 307.584 
L 239.390636 287.629639 
L 236.176234 287.629639 
z
" clip-path="url(#p925a989077)" style="fill: #ff7f0e"/>
   </g>
   <g id="patch_154">
    <path d="M 239.423104 307.584 
L 242.637506 307.584 
L 242.637506 289.673522 
L 239.423104 289.673522 
z
" clip-path="url(#p925a989077)" style="fill: #ff7f0e"/>
   </g>
   <g id="patch_155">
    <path d="M 242.669975 307.584 
L 245.884376 307.584 
L 245.884376 289.530052 
L 242.669975 289.530052 
z
" clip-path="url(#p925a989077)" style="fill: #ff7f0e"/>
   </g>
   <g id="patch_156">
    <path d="M 245.916845 307.584 
L 249.131246 307.584 
L 249.131246 290.3366 
L 245.916845 290.3366 
z
" clip-path="url(#p925a989077)" style="fill: #ff7f0e"/>
   </g>
   <g id="patch_157">
    <path d="M 249.163715 307.584 
L 252.378116 307.584 
L 252.378116 292.934464 
L 249.163715 292.934464 
z
" clip-path="url(#p925a989077)" style="fill: #ff7f0e"/>
   </g>
   <g id="patch_158">
    <path d="M 252.410585 307.584 
L 255.624986 307.584 
L 255.624986 289.961227 
L 252.410585 289.961227 
z
" clip-path="url(#p925a989077)" style="fill: #ff7f0e"/>
   </g>
   <g id="patch_159">
    <path d="M 255.657455 307.584 
L 258.871857 307.584 
L 258.871857 284.422465 
L 255.657455 284.422465 
z
" clip-path="url(#p925a989077)" style="fill: #ff7f0e"/>
   </g>
   <g id="patch_160">
    <path d="M 258.904325 307.584 
L 262.118727 307.584 
L 262.118727 290.158295 
L 258.904325 290.158295 
z
" clip-path="url(#p925a989077)" style="fill: #ff7f0e"/>
   </g>
   <g id="patch_161">
    <path d="M 262.151195 307.584 
L 265.365597 307.584 
L 265.365597 289.381211 
L 262.151195 289.381211 
z
" clip-path="url(#p925a989077)" style="fill: #ff7f0e"/>
   </g>
   <g id="patch_162">
    <path d="M 265.398066 307.584 
L 268.612467 307.584 
L 268.612467 286.563057 
L 265.398066 286.563057 
z
" clip-path="url(#p925a989077)" style="fill: #ff7f0e"/>
   </g>
   <g id="patch_163">
    <path d="M 268.644936 307.584 
L 271.859337 307.584 
L 271.859337 287.544014 
L 268.644936 287.544014 
z
" clip-path="url(#p925a989077)" style="fill: #ff7f0e"/>
   </g>
   <g id="patch_164">
    <path d="M 271.891806 307.584 
L 275.106207 307.584 
L 275.106207 286.445698 
L 271.891806 286.445698 
z
" clip-path="url(#p925a989077)" style="fill: #ff7f0e"/>
   </g>
   <g id="patch_165">
    <path d="M 275.138676 307.584 
L 278.353077 307.584 
L 278.353077 287.41 
L 275.138676 287.41 
z
" clip-path="url(#p925a989077)" style="fill: #ff7f0e"/>
   </g>
   <g id="patch_166">
    <path d="M 278.385546 307.584 
L 281.599948 307.584 
L 281.599948 282.356354 
L 278.385546 282.356354 
z
" clip-path="url(#p925a989077)" style="fill: #ff7f0e"/>
   </g>
   <g id="patch_167">
    <path d="M 281.632416 307.584 
L 284.846818 307.584 
L 284.846818 281.681871 
L 281.632416 281.681871 
z
" clip-path="url(#p925a989077)" style="fill: #ff7f0e"/>
   </g>
   <g id="patch_168">
    <path d="M 284.879286 307.584 
L 288.093688 307.584 
L 288.093688 288.719582 
L 284.879286 288.719582 
z
" clip-path="url(#p925a989077)" style="fill: #ff7f0e"/>
   </g>
   <g id="patch_169">
    <path d="M 288.126157 307.584 
L 291.340558 307.584 
L 291.340558 283.902206 
L 288.126157 283.902206 
z
" clip-path="url(#p925a989077)" style="fill: #ff7f0e"/>
   </g>
   <g id="patch_170">
    <path d="M 291.373027 307.584 
L 294.587428 307.584 
L 294.587428 274.171972 
L 291.373027 274.171972 
z
" clip-path="url(#p925a989077)" style="fill: #ff7f0e"/>
   </g>
   <g id="patch_171">
    <path d="M 294.619897 307.584 
L 297.834298 307.584 
L 297.834298 281.324027 
L 294.619897 281.324027 
z
" clip-path="url(#p925a989077)" style="fill: #ff7f0e"/>
   </g>
   <g id="patch_172">
    <path d="M 297.866767 307.584 
L 301.081168 307.584 
L 301.081168 282.061543 
L 297.866767 282.061543 
z
" clip-path="url(#p925a989077)" style="fill: #ff7f0e"/>
   </g>
   <g id="patch_173">
    <path d="M 301.113637 307.584 
L 304.328039 307.584 
L 304.328039 284.350474 
L 301.113637 284.350474 
z
" clip-path="url(#p925a989077)" style="fill: #ff7f0e"/>
   </g>
   <g id="patch_174">
    <path d="M 304.360507 307.584 
L 307.574909 307.584 
L 307.574909 275.478657 
L 304.360507 275.478657 
z
" clip-path="url(#p925a989077)" style="fill: #ff7f0e"/>
   </g>
   <g id="patch_175">
    <path d="M 307.607377 307.584 
L 310.821779 307.584 
L 310.821779 280.81611 
L 307.607377 280.81611 
z
" clip-path="url(#p925a989077)" style="fill: #ff7f0e"/>
   </g>
   <g id="patch_176">
    <path d="M 310.854248 307.584 
L 314.068649 307.584 
L 314.068649 281.39842 
L 310.854248 281.39842 
z
" clip-path="url(#p925a989077)" style="fill: #ff7f0e"/>
   </g>
   <g id="patch_177">
    <path d="M 314.101118 307.584 
L 317.315519 307.584 
L 317.315519 290.96884 
L 314.101118 290.96884 
z
" clip-path="url(#p925a989077)" style="fill: #ff7f0e"/>
   </g>
   <g id="patch_178">
    <path d="M 317.347988 307.584 
L 320.562389 307.584 
L 320.562389 275.093391 
L 317.347988 275.093391 
z
" clip-path="url(#p925a989077)" style="fill: #ff7f0e"/>
   </g>
   <g id="patch_179">
    <path d="M 320.594858 307.584 
L 323.809259 307.584 
L 323.809259 280.524 
L 320.594858 280.524 
z
" clip-path="url(#p925a989077)" style="fill: #ff7f0e"/>
   </g>
   <g id="patch_180">
    <path d="M 323.841728 307.584 
L 327.05613 307.584 
L 327.05613 285.530089 
L 323.841728 285.530089 
z
" clip-path="url(#p925a989077)" style="fill: #ff7f0e"/>
   </g>
   <g id="patch_181">
    <path d="M 327.088598 307.584 
L 330.303 307.584 
L 330.303 285.582246 
L 327.088598 285.582246 
z
" clip-path="url(#p925a989077)" style="fill: #ff7f0e"/>
   </g>
   <g id="patch_182">
    <path d="M 330.335468 307.584 
L 333.54987 307.584 
L 333.54987 290.035009 
L 330.335468 290.035009 
z
" clip-path="url(#p925a989077)" style="fill: #ff7f0e"/>
   </g>
   <g id="patch_183">
    <path d="M 333.582339 307.584 
L 336.79674 307.584 
L 336.79674 294.63365 
L 333.582339 294.63365 
z
" clip-path="url(#p925a989077)" style="fill: #ff7f0e"/>
   </g>
   <g id="patch_184">
    <path d="M 336.829209 307.584 
L 340.04361 307.584 
L 340.04361 294.017112 
L 336.829209 294.017112 
z
" clip-path="url(#p925a989077)" style="fill: #ff7f0e"/>
   </g>
   <g id="patch_185">
    <path d="M 340.076079 307.584 
L 343.29048 307.584 
L 343.29048 295.111772 
L 340.076079 295.111772 
z
" clip-path="url(#p925a989077)" style="fill: #ff7f0e"/>
   </g>
   <g id="patch_186">
    <path d="M 343.322949 307.584 
L 346.53735 307.584 
L 346.53735 295.098472 
L 343.322949 295.098472 
z
" clip-path="url(#p925a989077)" style="fill: #ff7f0e"/>
   </g>
   <g id="patch_187">
    <path d="M 346.569819 307.584 
L 349.784221 307.584 
L 349.784221 295.279714 
L 346.569819 295.279714 
z
" clip-path="url(#p925a989077)" style="fill: #ff7f0e"/>
   </g>
   <g id="patch_188">
    <path d="M 349.816689 307.584 
L 353.031091 307.584 
L 353.031091 291.517884 
L 349.816689 291.517884 
z
" clip-path="url(#p925a989077)" style="fill: #ff7f0e"/>
   </g>
   <g id="patch_189">
    <path d="M 353.063559 307.584 
L 356.277961 307.584 
L 356.277961 294.526771 
L 353.063559 294.526771 
z
" clip-path="url(#p925a989077)" style="fill: #ff7f0e"/>
   </g>
   <g id="patch_190">
    <path d="M 356.31043 307.584 
L 359.524831 307.584 
L 359.524831 291.419262 
L 356.31043 291.419262 
z
" clip-path="url(#p925a989077)" style="fill: #ff7f0e"/>
   </g>
   <g id="patch_191">
    <path d="M 359.5573 307.584 
L 362.771701 307.584 
L 362.771701 276.552924 
L 359.5573 276.552924 
z
" clip-path="url(#p925a989077)" style="fill: #ff7f0e"/>
   </g>
   <g id="patch_192">
    <path d="M 362.80417 307.584 
L 366.018571 307.584 
L 366.018571 277.591232 
L 362.80417 277.591232 
z
" clip-path="url(#p925a989077)" style="fill: #ff7f0e"/>
   </g>
   <g id="patch_193">
    <path d="M 366.05104 307.584 
L 369.265441 307.584 
L 369.265441 281.394351 
L 366.05104 281.394351 
z
" clip-path="url(#p925a989077)" style="fill: #ff7f0e"/>
   </g>
   <g id="patch_194">
    <path d="M 369.29791 307.584 
L 372.512312 307.584 
L 372.512312 280.956662 
L 369.29791 280.956662 
z
" clip-path="url(#p925a989077)" style="fill: #ff7f0e"/>
   </g>
   <g id="patch_195">
    <path d="M 372.54478 307.584 
L 375.759182 307.584 
L 375.759182 281.990174 
L 372.54478 281.990174 
z
" clip-path="url(#p925a989077)" style="fill: #ff7f0e"/>
   </g>
   <g id="patch_196">
    <path d="M 375.79165 307.584 
L 379.006052 307.584 
L 379.006052 278.781622 
L 375.79165 278.781622 
z
" clip-path="url(#p925a989077)" style="fill: #ff7f0e"/>
   </g>
   <g id="patch_197">
    <path d="M 379.038521 307.584 
L 382.252922 307.584 
L 382.252922 282.816199 
L 379.038521 282.816199 
z
" clip-path="url(#p925a989077)" style="fill: #ff7f0e"/>
   </g>
   <g id="patch_198">
    <path d="M 382.285391 307.584 
L 385.499792 307.584 
L 385.499792 274.039807 
L 382.285391 274.039807 
z
" clip-path="url(#p925a989077)" style="fill: #ff7f0e"/>
   </g>
   <g id="patch_199">
    <path d="M 385.532261 307.584 
L 388.746662 307.584 
L 388.746662 283.947736 
L 385.532261 283.947736 
z
" clip-path="url(#p925a989077)" style="fill: #ff7f0e"/>
   </g>
   <g id="patch_200">
    <path d="M 388.779131 307.584 
L 391.993532 307.584 
L 391.993532 289.02238 
L 388.779131 289.02238 
z
" clip-path="url(#p925a989077)" style="fill: #ff7f0e"/>
   </g>
   <g id="patch_201">
    <path d="M 392.026001 307.584 
L 395.240403 307.584 
L 395.240403 280.642977 
L 392.026001 280.642977 
z
" clip-path="url(#p925a989077)" style="fill: #ff7f0e"/>
   </g>
   <g id="patch_202">
    <path d="M 395.272871 307.584 
L 398.487273 307.584 
L 398.487273 279.52195 
L 395.272871 279.52195 
z
" clip-path="url(#p925a989077)" style="fill: #ff7f0e"/>
   </g>
   <g id="patch_203">
    <path d="M 73.832727 307.584 
L 77.047129 307.584 
L 77.047129 307.422524 
L 73.832727 307.422524 
z
" clip-path="url(#p925a989077)" style="fill: #2ca02c"/>
   </g>
   <g id="patch_204">
    <path d="M 77.079597 307.584 
L 80.293999 307.584 
L 80.293999 306.564284 
L 77.079597 306.564284 
z
" clip-path="url(#p925a989077)" style="fill: #2ca02c"/>
   </g>
   <g id="patch_205">
    <path d="M 80.326468 307.584 
L 83.540869 307.584 
L 83.540869 306.520599 
L 80.326468 306.520599 
z
" clip-path="url(#p925a989077)" style="fill: #2ca02c"/>
   </g>
   <g id="patch_206">
    <path d="M 83.573338 307.584 
L 86.787739 307.584 
L 86.787739 306.596694 
L 83.573338 306.596694 
z
" clip-path="url(#p925a989077)" style="fill: #2ca02c"/>
   </g>
   <g id="patch_207">
    <path d="M 86.820208 307.584 
L 90.034609 307.584 
L 90.034609 305.670443 
L 86.820208 305.670443 
z
" clip-path="url(#p925a989077)" style="fill: #2ca02c"/>
   </g>
   <g id="patch_208">
    <path d="M 90.067078 307.584 
L 93.281479 307.584 
L 93.281479 306.149176 
L 90.067078 306.149176 
z
" clip-path="url(#p925a989077)" style="fill: #2ca02c"/>
   </g>
   <g id="patch_209">
    <path d="M 93.313948 307.584 
L 96.52835 307.584 
L 96.52835 306.19123 
L 93.313948 306.19123 
z
" clip-path="url(#p925a989077)" style="fill: #2ca02c"/>
   </g>
   <g id="patch_210">
    <path d="M 96.560818 307.584 
L 99.77522 307.584 
L 99.77522 305.970921 
L 96.560818 305.970921 
z
" clip-path="url(#p925a989077)" style="fill: #2ca02c"/>
   </g>
   <g id="patch_211">
    <path d="M 99.807688 307.584 
L 103.02209 307.584 
L 103.02209 305.684069 
L 99.807688 305.684069 
z
" clip-path="url(#p925a989077)" style="fill: #2ca02c"/>
   </g>
   <g id="patch_212">
    <path d="M 103.054559 307.584 
L 106.26896 307.584 
L 106.26896 304.970711 
L 103.054559 304.970711 
z
" clip-path="url(#p925a989077)" style="fill: #2ca02c"/>
   </g>
   <g id="patch_213">
    <path d="M 106.301429 307.584 
L 109.51583 307.584 
L 109.51583 304.612207 
L 106.301429 304.612207 
z
" clip-path="url(#p925a989077)" style="fill: #2ca02c"/>
   </g>
   <g id="patch_214">
    <path d="M 109.548299 307.584 
L 112.7627 307.584 
L 112.7627 304.860149 
L 109.548299 304.860149 
z
" clip-path="url(#p925a989077)" style="fill: #2ca02c"/>
   </g>
   <g id="patch_215">
    <path d="M 112.795169 307.584 
L 116.00957 307.584 
L 116.00957 305.697728 
L 112.795169 305.697728 
z
" clip-path="url(#p925a989077)" style="fill: #2ca02c"/>
   </g>
   <g id="patch_216">
    <path d="M 116.042039 307.584 
L 119.256441 307.584 
L 119.256441 304.355661 
L 116.042039 304.355661 
z
" clip-path="url(#p925a989077)" style="fill: #2ca02c"/>
   </g>
   <g id="patch_217">
    <path d="M 119.288909 307.584 
L 122.503311 307.584 
L 122.503311 304.503625 
L 119.288909 304.503625 
z
" clip-path="url(#p925a989077)" style="fill: #2ca02c"/>
   </g>
   <g id="patch_218">
    <path d="M 122.535779 307.584 
L 125.750181 307.584 
L 125.750181 304.038991 
L 122.535779 304.038991 
z
" clip-path="url(#p925a989077)" style="fill: #2ca02c"/>
   </g>
   <g id="patch_219">
    <path d="M 125.78265 307.584 
L 128.997051 307.584 
L 128.997051 303.658118 
L 125.78265 303.658118 
z
" clip-path="url(#p925a989077)" style="fill: #2ca02c"/>
   </g>
   <g id="patch_220">
    <path d="M 129.02952 307.584 
L 132.243921 307.584 
L 132.243921 305.255947 
L 129.02952 305.255947 
z
" clip-path="url(#p925a989077)" style="fill: #2ca02c"/>
   </g>
   <g id="patch_221">
    <path d="M 132.27639 307.584 
L 135.490791 307.584 
L 135.490791 304.66887 
L 132.27639 304.66887 
z
" clip-path="url(#p925a989077)" style="fill: #2ca02c"/>
   </g>
   <g id="patch_222">
    <path d="M 135.52326 307.584 
L 138.737661 307.584 
L 138.737661 304.809109 
L 135.52326 304.809109 
z
" clip-path="url(#p925a989077)" style="fill: #2ca02c"/>
   </g>
   <g id="patch_223">
    <path d="M 138.77013 307.584 
L 141.984532 307.584 
L 141.984532 303.104 
L 138.77013 303.104 
z
" clip-path="url(#p925a989077)" style="fill: #2ca02c"/>
   </g>
   <g id="patch_224">
    <path d="M 142.017 307.584 
L 145.231402 307.584 
L 145.231402 303.898238 
L 142.017 303.898238 
z
" clip-path="url(#p925a989077)" style="fill: #2ca02c"/>
   </g>
   <g id="patch_225">
    <path d="M 145.26387 307.584 
L 148.478272 307.584 
L 148.478272 304.010283 
L 145.26387 304.010283 
z
" clip-path="url(#p925a989077)" style="fill: #2ca02c"/>
   </g>
   <g id="patch_226">
    <path d="M 148.510741 307.584 
L 151.725142 307.584 
L 151.725142 304.569016 
L 148.510741 304.569016 
z
" clip-path="url(#p925a989077)" style="fill: #2ca02c"/>
   </g>
   <g id="patch_227">
    <path d="M 151.757611 307.584 
L 154.972012 307.584 
L 154.972012 305.053798 
L 151.757611 305.053798 
z
" clip-path="url(#p925a989077)" style="fill: #2ca02c"/>
   </g>
   <g id="patch_228">
    <path d="M 155.004481 307.584 
L 158.218882 307.584 
L 158.218882 304.870585 
L 155.004481 304.870585 
z
" clip-path="url(#p925a989077)" style="fill: #2ca02c"/>
   </g>
   <g id="patch_229">
    <path d="M 158.251351 307.584 
L 161.465752 307.584 
L 161.465752 303.570368 
L 158.251351 303.570368 
z
" clip-path="url(#p925a989077)" style="fill: #2ca02c"/>
   </g>
   <g id="patch_230">
    <path d="M 161.498221 307.584 
L 164.712623 307.584 
L 164.712623 302.255301 
L 161.498221 302.255301 
z
" clip-path="url(#p925a989077)" style="fill: #2ca02c"/>
   </g>
   <g id="patch_231">
    <path d="M 164.745091 307.584 
L 167.959493 307.584 
L 167.959493 301.728857 
L 164.745091 301.728857 
z
" clip-path="url(#p925a989077)" style="fill: #2ca02c"/>
   </g>
   <g id="patch_232">
    <path d="M 167.991961 307.584 
L 171.206363 307.584 
L 171.206363 304.429097 
L 167.991961 304.429097 
z
" clip-path="url(#p925a989077)" style="fill: #2ca02c"/>
   </g>
   <g id="patch_233">
    <path d="M 171.238832 307.584 
L 174.453233 307.584 
L 174.453233 303.707942 
L 171.238832 303.707942 
z
" clip-path="url(#p925a989077)" style="fill: #2ca02c"/>
   </g>
   <g id="patch_234">
    <path d="M 174.485702 307.584 
L 177.700103 307.584 
L 177.700103 304.348041 
L 174.485702 304.348041 
z
" clip-path="url(#p925a989077)" style="fill: #2ca02c"/>
   </g>
   <g id="patch_235">
    <path d="M 177.732572 307.584 
L 180.946973 307.584 
L 180.946973 303.494164 
L 177.732572 303.494164 
z
" clip-path="url(#p925a989077)" style="fill: #2ca02c"/>
   </g>
   <g id="patch_236">
    <path d="M 180.979442 307.584 
L 184.193843 307.584 
L 184.193843 304.092966 
L 180.979442 304.092966 
z
" clip-path="url(#p925a989077)" style="fill: #2ca02c"/>
   </g>
   <g id="patch_237">
    <path d="M 184.226312 307.584 
L 187.440714 307.584 
L 187.440714 303.355187 
L 184.226312 303.355187 
z
" clip-path="url(#p925a989077)" style="fill: #2ca02c"/>
   </g>
   <g id="patch_238">
    <path d="M 187.473182 307.584 
L 190.687584 307.584 
L 190.687584 303.52692 
L 187.473182 303.52692 
z
" clip-path="url(#p925a989077)" style="fill: #2ca02c"/>
   </g>
   <g id="patch_239">
    <path d="M 190.720052 307.584 
L 193.934454 307.584 
L 193.934454 302.710446 
L 190.720052 302.710446 
z
" clip-path="url(#p925a989077)" style="fill: #2ca02c"/>
   </g>
   <g id="patch_240">
    <path d="M 193.966923 307.584 
L 197.181324 307.584 
L 197.181324 305.035645 
L 193.966923 305.035645 
z
" clip-path="url(#p925a989077)" style="fill: #2ca02c"/>
   </g>
   <g id="patch_241">
    <path d="M 197.213793 307.584 
L 200.428194 307.584 
L 200.428194 303.032757 
L 197.213793 303.032757 
z
" clip-path="url(#p925a989077)" style="fill: #2ca02c"/>
   </g>
   <g id="patch_242">
    <path d="M 200.460663 307.584 
L 203.675064 307.584 
L 203.675064 304.484363 
L 200.460663 304.484363 
z
" clip-path="url(#p925a989077)" style="fill: #2ca02c"/>
   </g>
   <g id="patch_243">
    <path d="M 203.707533 307.584 
L 206.921934 307.584 
L 206.921934 303.459511 
L 203.707533 303.459511 
z
" clip-path="url(#p925a989077)" style="fill: #2ca02c"/>
   </g>
   <g id="patch_244">
    <path d="M 206.954403 307.584 
L 210.168805 307.584 
L 210.168805 303.65597 
L 206.954403 303.65597 
z
" clip-path="url(#p925a989077)" style="fill: #2ca02c"/>
   </g>
   <g id="patch_245">
    <path d="M 210.201273 307.584 
L 213.415675 307.584 
L 213.415675 303.357936 
L 210.201273 303.357936 
z
" clip-path="url(#p925a989077)" style="fill: #2ca02c"/>
   </g>
   <g id="patch_246">
    <path d="M 213.448143 307.584 
L 216.662545 307.584 
L 216.662545 304.313831 
L 213.448143 304.313831 
z
" clip-path="url(#p925a989077)" style="fill: #2ca02c"/>
   </g>
   <g id="patch_247">
    <path d="M 216.695014 307.584 
L 219.909415 307.584 
L 219.909415 304.375651 
L 216.695014 304.375651 
z
" clip-path="url(#p925a989077)" style="fill: #2ca02c"/>
   </g>
   <g id="patch_248">
    <path d="M 219.941884 307.584 
L 223.156285 307.584 
L 223.156285 302.950686 
L 219.941884 302.950686 
z
" clip-path="url(#p925a989077)" style="fill: #2ca02c"/>
   </g>
   <g id="patch_249">
    <path d="M 223.188754 307.584 
L 226.403155 307.584 
L 226.403155 303.063777 
L 223.188754 303.063777 
z
" clip-path="url(#p925a989077)" style="fill: #2ca02c"/>
   </g>
   <g id="patch_250">
    <path d="M 226.435624 307.584 
L 229.650025 307.584 
L 229.650025 304.686579 
L 226.435624 304.686579 
z
" clip-path="url(#p925a989077)" style="fill: #2ca02c"/>
   </g>
   <g id="patch_251">
    <path d="M 229.682494 307.584 
L 232.896896 307.584 
L 232.896896 304.176372 
L 229.682494 304.176372 
z
" clip-path="url(#p925a989077)" style="fill: #2ca02c"/>
   </g>
   <g id="patch_252">
    <path d="M 232.929364 307.584 
L 236.143766 307.584 
L 236.143766 304.701044 
L 232.929364 304.701044 
z
" clip-path="url(#p925a989077)" style="fill: #2ca02c"/>
   </g>
   <g id="patch_253">
    <path d="M 236.176234 307.584 
L 239.390636 307.584 
L 239.390636 303.384102 
L 236.176234 303.384102 
z
" clip-path="url(#p925a989077)" style="fill: #2ca02c"/>
   </g>
   <g id="patch_254">
    <path d="M 239.423104 307.584 
L 242.637506 307.584 
L 242.637506 303.657654 
L 239.423104 303.657654 
z
" clip-path="url(#p925a989077)" style="fill: #2ca02c"/>
   </g>
   <g id="patch_255">
    <path d="M 242.669975 307.584 
L 245.884376 307.584 
L 245.884376 303.19034 
L 242.669975 303.19034 
z
" clip-path="url(#p925a989077)" style="fill: #2ca02c"/>
   </g>
   <g id="patch_256">
    <path d="M 245.916845 307.584 
L 249.131246 307.584 
L 249.131246 303.777309 
L 245.916845 303.777309 
z
" clip-path="url(#p925a989077)" style="fill: #2ca02c"/>
   </g>
   <g id="patch_257">
    <path d="M 249.163715 307.584 
L 252.378116 307.584 
L 252.378116 304.160877 
L 249.163715 304.160877 
z
" clip-path="url(#p925a989077)" style="fill: #2ca02c"/>
   </g>
   <g id="patch_258">
    <path d="M 252.410585 307.584 
L 255.624986 307.584 
L 255.624986 302.385231 
L 252.410585 302.385231 
z
" clip-path="url(#p925a989077)" style="fill: #2ca02c"/>
   </g>
   <g id="patch_259">
    <path d="M 255.657455 307.584 
L 258.871857 307.584 
L 258.871857 300.567204 
L 255.657455 300.567204 
z
" clip-path="url(#p925a989077)" style="fill: #2ca02c"/>
   </g>
   <g id="patch_260">
    <path d="M 258.904325 307.584 
L 262.118727 307.584 
L 262.118727 302.650695 
L 258.904325 302.650695 
z
" clip-path="url(#p925a989077)" style="fill: #2ca02c"/>
   </g>
   <g id="patch_261">
    <path d="M 262.151195 307.584 
L 265.365597 307.584 
L 265.365597 301.916268 
L 262.151195 301.916268 
z
" clip-path="url(#p925a989077)" style="fill: #2ca02c"/>
   </g>
   <g id="patch_262">
    <path d="M 265.398066 307.584 
L 268.612467 307.584 
L 268.612467 302.330709 
L 265.398066 302.330709 
z
" clip-path="url(#p925a989077)" style="fill: #2ca02c"/>
   </g>
   <g id="patch_263">
    <path d="M 268.644936 307.584 
L 271.859337 307.584 
L 271.859337 303.228 
L 268.644936 303.228 
z
" clip-path="url(#p925a989077)" style="fill: #2ca02c"/>
   </g>
   <g id="patch_264">
    <path d="M 271.891806 307.584 
L 275.106207 307.584 
L 275.106207 302.587097 
L 271.891806 302.587097 
z
" clip-path="url(#p925a989077)" style="fill: #2ca02c"/>
   </g>
   <g id="patch_265">
    <path d="M 275.138676 307.584 
L 278.353077 307.584 
L 278.353077 302.425597 
L 275.138676 302.425597 
z
" clip-path="url(#p925a989077)" style="fill: #2ca02c"/>
   </g>
   <g id="patch_266">
    <path d="M 278.385546 307.584 
L 281.599948 307.584 
L 281.599948 301.475419 
L 278.385546 301.475419 
z
" clip-path="url(#p925a989077)" style="fill: #2ca02c"/>
   </g>
   <g id="patch_267">
    <path d="M 281.632416 307.584 
L 284.846818 307.584 
L 284.846818 301.432244 
L 281.632416 301.432244 
z
" clip-path="url(#p925a989077)" style="fill: #2ca02c"/>
   </g>
   <g id="patch_268">
    <path d="M 284.879286 307.584 
L 288.093688 307.584 
L 288.093688 303.331775 
L 284.879286 303.331775 
z
" clip-path="url(#p925a989077)" style="fill: #2ca02c"/>
   </g>
   <g id="patch_269">
    <path d="M 288.126157 307.584 
L 291.340558 307.584 
L 291.340558 302.880655 
L 288.126157 302.880655 
z
" clip-path="url(#p925a989077)" style="fill: #2ca02c"/>
   </g>
   <g id="patch_270">
    <path d="M 291.373027 307.584 
L 294.587428 307.584 
L 294.587428 301.832787 
L 291.373027 301.832787 
z
" clip-path="url(#p925a989077)" style="fill: #2ca02c"/>
   </g>
   <g id="patch_271">
    <path d="M 294.619897 307.584 
L 297.834298 307.584 
L 297.834298 303.398301 
L 294.619897 303.398301 
z
" clip-path="url(#p925a989077)" style="fill: #2ca02c"/>
   </g>
   <g id="patch_272">
    <path d="M 297.866767 307.584 
L 301.081168 307.584 
L 301.081168 302.332852 
L 297.866767 302.332852 
z
" clip-path="url(#p925a989077)" style="fill: #2ca02c"/>
   </g>
   <g id="patch_273">
    <path d="M 301.113637 307.584 
L 304.328039 307.584 
L 304.328039 302.298916 
L 301.113637 302.298916 
z
" clip-path="url(#p925a989077)" style="fill: #2ca02c"/>
   </g>
   <g id="patch_274">
    <path d="M 304.360507 307.584 
L 307.574909 307.584 
L 307.574909 301.011253 
L 304.360507 301.011253 
z
" clip-path="url(#p925a989077)" style="fill: #2ca02c"/>
   </g>
   <g id="patch_275">
    <path d="M 307.607377 307.584 
L 310.821779 307.584 
L 310.821779 301.87064 
L 307.607377 301.87064 
z
" clip-path="url(#p925a989077)" style="fill: #2ca02c"/>
   </g>
   <g id="patch_276">
    <path d="M 310.854248 307.584 
L 314.068649 307.584 
L 314.068649 302.846249 
L 310.854248 302.846249 
z
" clip-path="url(#p925a989077)" style="fill: #2ca02c"/>
   </g>
   <g id="patch_277">
    <path d="M 314.101118 307.584 
L 317.315519 307.584 
L 317.315519 303.992341 
L 314.101118 303.992341 
z
" clip-path="url(#p925a989077)" style="fill: #2ca02c"/>
   </g>
   <g id="patch_278">
    <path d="M 317.347988 307.584 
L 320.562389 307.584 
L 320.562389 300.873093 
L 317.347988 300.873093 
z
" clip-path="url(#p925a989077)" style="fill: #2ca02c"/>
   </g>
   <g id="patch_279">
    <path d="M 320.594858 307.584 
L 323.809259 307.584 
L 323.809259 302.22017 
L 320.594858 302.22017 
z
" clip-path="url(#p925a989077)" style="fill: #2ca02c"/>
   </g>
   <g id="patch_280">
    <path d="M 323.841728 307.584 
L 327.05613 307.584 
L 327.05613 303.218953 
L 323.841728 303.218953 
z
" clip-path="url(#p925a989077)" style="fill: #2ca02c"/>
   </g>
   <g id="patch_281">
    <path d="M 327.088598 307.584 
L 330.303 307.584 
L 330.303 302.747302 
L 327.088598 302.747302 
z
" clip-path="url(#p925a989077)" style="fill: #2ca02c"/>
   </g>
   <g id="patch_282">
    <path d="M 330.335468 307.584 
L 333.54987 307.584 
L 333.54987 302.764222 
L 330.335468 302.764222 
z
" clip-path="url(#p925a989077)" style="fill: #2ca02c"/>
   </g>
   <g id="patch_283">
    <path d="M 333.582339 307.584 
L 336.79674 307.584 
L 336.79674 303.196916 
L 333.582339 303.196916 
z
" clip-path="url(#p925a989077)" style="fill: #2ca02c"/>
   </g>
   <g id="patch_284">
    <path d="M 336.829209 307.584 
L 340.04361 307.584 
L 340.04361 302.631543 
L 336.829209 302.631543 
z
" clip-path="url(#p925a989077)" style="fill: #2ca02c"/>
   </g>
   <g id="patch_285">
    <path d="M 340.076079 307.584 
L 343.29048 307.584 
L 343.29048 302.339995 
L 340.076079 302.339995 
z
" clip-path="url(#p925a989077)" style="fill: #2ca02c"/>
   </g>
   <g id="patch_286">
    <path d="M 343.322949 307.584 
L 346.53735 307.584 
L 346.53735 302.902426 
L 343.322949 302.902426 
z
" clip-path="url(#p925a989077)" style="fill: #2ca02c"/>
   </g>
   <g id="patch_287">
    <path d="M 346.569819 307.584 
L 349.784221 307.584 
L 349.784221 303.199714 
L 346.569819 303.199714 
z
" clip-path="url(#p925a989077)" style="fill: #2ca02c"/>
   </g>
   <g id="patch_288">
    <path d="M 349.816689 307.584 
L 353.031091 307.584 
L 353.031091 301.156864 
L 349.816689 301.156864 
z
" clip-path="url(#p925a989077)" style="fill: #2ca02c"/>
   </g>
   <g id="patch_289">
    <path d="M 353.063559 307.584 
L 356.277961 307.584 
L 356.277961 302.545613 
L 353.063559 302.545613 
z
" clip-path="url(#p925a989077)" style="fill: #2ca02c"/>
   </g>
   <g id="patch_290">
    <path d="M 356.31043 307.584 
L 359.524831 307.584 
L 359.524831 303.614979 
L 356.31043 303.614979 
z
" clip-path="url(#p925a989077)" style="fill: #2ca02c"/>
   </g>
   <g id="patch_291">
    <path d="M 359.5573 307.584 
L 362.771701 307.584 
L 362.771701 302.412792 
L 359.5573 302.412792 
z
" clip-path="url(#p925a989077)" style="fill: #2ca02c"/>
   </g>
   <g id="patch_292">
    <path d="M 362.80417 307.584 
L 366.018571 307.584 
L 366.018571 302.378001 
L 362.80417 302.378001 
z
" clip-path="url(#p925a989077)" style="fill: #2ca02c"/>
   </g>
   <g id="patch_293">
    <path d="M 366.05104 307.584 
L 369.265441 307.584 
L 369.265441 302.154106 
L 366.05104 302.154106 
z
" clip-path="url(#p925a989077)" style="fill: #2ca02c"/>
   </g>
   <g id="patch_294">
    <path d="M 369.29791 307.584 
L 372.512312 307.584 
L 372.512312 301.452387 
L 369.29791 301.452387 
z
" clip-path="url(#p925a989077)" style="fill: #2ca02c"/>
   </g>
   <g id="patch_295">
    <path d="M 372.54478 307.584 
L 375.759182 307.584 
L 375.759182 301.923739 
L 372.54478 301.923739 
z
" clip-path="url(#p925a989077)" style="fill: #2ca02c"/>
   </g>
   <g id="patch_296">
    <path d="M 375.79165 307.584 
L 379.006052 307.584 
L 379.006052 301.933397 
L 375.79165 301.933397 
z
" clip-path="url(#p925a989077)" style="fill: #2ca02c"/>
   </g>
   <g id="patch_297">
    <path d="M 379.038521 307.584 
L 382.252922 307.584 
L 382.252922 303.136531 
L 379.038521 303.136531 
z
" clip-path="url(#p925a989077)" style="fill: #2ca02c"/>
   </g>
   <g id="patch_298">
    <path d="M 382.285391 307.584 
L 385.499792 307.584 
L 385.499792 302.216929 
L 382.285391 302.216929 
z
" clip-path="url(#p925a989077)" style="fill: #2ca02c"/>
   </g>
   <g id="patch_299">
    <path d="M 385.532261 307.584 
L 388.746662 307.584 
L 388.746662 302.579579 
L 385.532261 302.579579 
z
" clip-path="url(#p925a989077)" style="fill: #2ca02c"/>
   </g>
   <g id="patch_300">
    <path d="M 388.779131 307.584 
L 391.993532 307.584 
L 391.993532 302.207855 
L 388.779131 302.207855 
z
" clip-path="url(#p925a989077)" style="fill: #2ca02c"/>
   </g>
   <g id="patch_301">
    <path d="M 392.026001 307.584 
L 395.240403 307.584 
L 395.240403 300.889564 
L 392.026001 300.889564 
z
" clip-path="url(#p925a989077)" style="fill: #2ca02c"/>
   </g>
   <g id="patch_302">
    <path d="M 395.272871 307.584 
L 398.487273 307.584 
L 398.487273 300.464675 
L 395.272871 300.464675 
z
" clip-path="url(#p925a989077)" style="fill: #2ca02c"/>
   </g>
   <g id="matplotlib.axis_1">
    <g id="xtick_1">
     <g id="line2d_1">
      <path d="M 73.832403 307.584 
L 73.832403 41.472 
" clip-path="url(#p925a989077)" style="fill: none; stroke: #b0b0b0; stroke-width: 0.8; stroke-linecap: square"/>
     </g>
     <g id="line2d_2">
      <defs>
       <path id="m90dda8fb02" d="M 0 0 
L 0 3.5 
" style="stroke: #000000; stroke-width: 0.8"/>
      </defs>
      <g>
       <use xlink:href="#m90dda8fb02" x="73.832403" y="307.584" style="stroke: #000000; stroke-width: 0.8"/>
      </g>
     </g>
     <g id="text_1">
      <!-- 0 -->
      <g transform="translate(70.651153 322.182437) scale(0.1 -0.1)">
       <defs>
        <path id="DejaVuSans-30" d="M 2034 4250 
Q 1547 4250 1301 3770 
Q 1056 3291 1056 2328 
Q 1056 1369 1301 889 
Q 1547 409 2034 409 
Q 2525 409 2770 889 
Q 3016 1369 3016 2328 
Q 3016 3291 2770 3770 
Q 2525 4250 2034 4250 
z
M 2034 4750 
Q 2819 4750 3233 4129 
Q 3647 3509 3647 2328 
Q 3647 1150 3233 529 
Q 2819 -91 2034 -91 
Q 1250 -91 836 529 
Q 422 1150 422 2328 
Q 422 3509 836 4129 
Q 1250 4750 2034 4750 
z
" transform="scale(0.015625)"/>
       </defs>
       <use xlink:href="#DejaVuSans-30"/>
      </g>
     </g>
    </g>
    <g id="xtick_2">
     <g id="line2d_3">
      <path d="M 138.76987 307.584 
L 138.76987 41.472 
" clip-path="url(#p925a989077)" style="fill: none; stroke: #b0b0b0; stroke-width: 0.8; stroke-linecap: square"/>
     </g>
     <g id="line2d_4">
      <g>
       <use xlink:href="#m90dda8fb02" x="138.76987" y="307.584" style="stroke: #000000; stroke-width: 0.8"/>
      </g>
     </g>
     <g id="text_2">
      <!-- 200000 -->
      <g transform="translate(119.68237 322.182437) scale(0.1 -0.1)">
       <defs>
        <path id="DejaVuSans-32" d="M 1228 531 
L 3431 531 
L 3431 0 
L 469 0 
L 469 531 
Q 828 903 1448 1529 
Q 2069 2156 2228 2338 
Q 2531 2678 2651 2914 
Q 2772 3150 2772 3378 
Q 2772 3750 2511 3984 
Q 2250 4219 1831 4219 
Q 1534 4219 1204 4116 
Q 875 4013 500 3803 
L 500 4441 
Q 881 4594 1212 4672 
Q 1544 4750 1819 4750 
Q 2544 4750 2975 4387 
Q 3406 4025 3406 3419 
Q 3406 3131 3298 2873 
Q 3191 2616 2906 2266 
Q 2828 2175 2409 1742 
Q 1991 1309 1228 531 
z
" transform="scale(0.015625)"/>
       </defs>
       <use xlink:href="#DejaVuSans-32"/>
       <use xlink:href="#DejaVuSans-30" x="63.623047"/>
       <use xlink:href="#DejaVuSans-30" x="127.246094"/>
       <use xlink:href="#DejaVuSans-30" x="190.869141"/>
       <use xlink:href="#DejaVuSans-30" x="254.492188"/>
       <use xlink:href="#DejaVuSans-30" x="318.115234"/>
      </g>
     </g>
    </g>
    <g id="xtick_3">
     <g id="line2d_5">
      <path d="M 203.707338 307.584 
L 203.707338 41.472 
" clip-path="url(#p925a989077)" style="fill: none; stroke: #b0b0b0; stroke-width: 0.8; stroke-linecap: square"/>
     </g>
     <g id="line2d_6">
      <g>
       <use xlink:href="#m90dda8fb02" x="203.707338" y="307.584" style="stroke: #000000; stroke-width: 0.8"/>
      </g>
     </g>
     <g id="text_3">
      <!-- 400000 -->
      <g transform="translate(184.619838 322.182437) scale(0.1 -0.1)">
       <defs>
        <path id="DejaVuSans-34" d="M 2419 4116 
L 825 1625 
L 2419 1625 
L 2419 4116 
z
M 2253 4666 
L 3047 4666 
L 3047 1625 
L 3713 1625 
L 3713 1100 
L 3047 1100 
L 3047 0 
L 2419 0 
L 2419 1100 
L 313 1100 
L 313 1709 
L 2253 4666 
z
" transform="scale(0.015625)"/>
       </defs>
       <use xlink:href="#DejaVuSans-34"/>
       <use xlink:href="#DejaVuSans-30" x="63.623047"/>
       <use xlink:href="#DejaVuSans-30" x="127.246094"/>
       <use xlink:href="#DejaVuSans-30" x="190.869141"/>
       <use xlink:href="#DejaVuSans-30" x="254.492188"/>
       <use xlink:href="#DejaVuSans-30" x="318.115234"/>
      </g>
     </g>
    </g>
    <g id="xtick_4">
     <g id="line2d_7">
      <path d="M 268.644806 307.584 
L 268.644806 41.472 
" clip-path="url(#p925a989077)" style="fill: none; stroke: #b0b0b0; stroke-width: 0.8; stroke-linecap: square"/>
     </g>
     <g id="line2d_8">
      <g>
       <use xlink:href="#m90dda8fb02" x="268.644806" y="307.584" style="stroke: #000000; stroke-width: 0.8"/>
      </g>
     </g>
     <g id="text_4">
      <!-- 600000 -->
      <g transform="translate(249.557306 322.182437) scale(0.1 -0.1)">
       <defs>
        <path id="DejaVuSans-36" d="M 2113 2584 
Q 1688 2584 1439 2293 
Q 1191 2003 1191 1497 
Q 1191 994 1439 701 
Q 1688 409 2113 409 
Q 2538 409 2786 701 
Q 3034 994 3034 1497 
Q 3034 2003 2786 2293 
Q 2538 2584 2113 2584 
z
M 3366 4563 
L 3366 3988 
Q 3128 4100 2886 4159 
Q 2644 4219 2406 4219 
Q 1781 4219 1451 3797 
Q 1122 3375 1075 2522 
Q 1259 2794 1537 2939 
Q 1816 3084 2150 3084 
Q 2853 3084 3261 2657 
Q 3669 2231 3669 1497 
Q 3669 778 3244 343 
Q 2819 -91 2113 -91 
Q 1303 -91 875 529 
Q 447 1150 447 2328 
Q 447 3434 972 4092 
Q 1497 4750 2381 4750 
Q 2619 4750 2861 4703 
Q 3103 4656 3366 4563 
z
" transform="scale(0.015625)"/>
       </defs>
       <use xlink:href="#DejaVuSans-36"/>
       <use xlink:href="#DejaVuSans-30" x="63.623047"/>
       <use xlink:href="#DejaVuSans-30" x="127.246094"/>
       <use xlink:href="#DejaVuSans-30" x="190.869141"/>
       <use xlink:href="#DejaVuSans-30" x="254.492188"/>
       <use xlink:href="#DejaVuSans-30" x="318.115234"/>
      </g>
     </g>
    </g>
    <g id="xtick_5">
     <g id="line2d_9">
      <path d="M 333.582274 307.584 
L 333.582274 41.472 
" clip-path="url(#p925a989077)" style="fill: none; stroke: #b0b0b0; stroke-width: 0.8; stroke-linecap: square"/>
     </g>
     <g id="line2d_10">
      <g>
       <use xlink:href="#m90dda8fb02" x="333.582274" y="307.584" style="stroke: #000000; stroke-width: 0.8"/>
      </g>
     </g>
     <g id="text_5">
      <!-- 800000 -->
      <g transform="translate(314.494774 322.182437) scale(0.1 -0.1)">
       <defs>
        <path id="DejaVuSans-38" d="M 2034 2216 
Q 1584 2216 1326 1975 
Q 1069 1734 1069 1313 
Q 1069 891 1326 650 
Q 1584 409 2034 409 
Q 2484 409 2743 651 
Q 3003 894 3003 1313 
Q 3003 1734 2745 1975 
Q 2488 2216 2034 2216 
z
M 1403 2484 
Q 997 2584 770 2862 
Q 544 3141 544 3541 
Q 544 4100 942 4425 
Q 1341 4750 2034 4750 
Q 2731 4750 3128 4425 
Q 3525 4100 3525 3541 
Q 3525 3141 3298 2862 
Q 3072 2584 2669 2484 
Q 3125 2378 3379 2068 
Q 3634 1759 3634 1313 
Q 3634 634 3220 271 
Q 2806 -91 2034 -91 
Q 1263 -91 848 271 
Q 434 634 434 1313 
Q 434 1759 690 2068 
Q 947 2378 1403 2484 
z
M 1172 3481 
Q 1172 3119 1398 2916 
Q 1625 2713 2034 2713 
Q 2441 2713 2670 2916 
Q 2900 3119 2900 3481 
Q 2900 3844 2670 4047 
Q 2441 4250 2034 4250 
Q 1625 4250 1398 4047 
Q 1172 3844 1172 3481 
z
" transform="scale(0.015625)"/>
       </defs>
       <use xlink:href="#DejaVuSans-38"/>
       <use xlink:href="#DejaVuSans-30" x="63.623047"/>
       <use xlink:href="#DejaVuSans-30" x="127.246094"/>
       <use xlink:href="#DejaVuSans-30" x="190.869141"/>
       <use xlink:href="#DejaVuSans-30" x="254.492188"/>
       <use xlink:href="#DejaVuSans-30" x="318.115234"/>
      </g>
     </g>
    </g>
    <g id="xtick_6">
     <g id="line2d_11">
      <path d="M 398.519741 307.584 
L 398.519741 41.472 
" clip-path="url(#p925a989077)" style="fill: none; stroke: #b0b0b0; stroke-width: 0.8; stroke-linecap: square"/>
     </g>
     <g id="line2d_12">
      <g>
       <use xlink:href="#m90dda8fb02" x="398.519741" y="307.584" style="stroke: #000000; stroke-width: 0.8"/>
      </g>
     </g>
     <g id="text_6">
      <!-- 1000000 -->
      <g transform="translate(376.250991 322.182437) scale(0.1 -0.1)">
       <defs>
        <path id="DejaVuSans-31" d="M 794 531 
L 1825 531 
L 1825 4091 
L 703 3866 
L 703 4441 
L 1819 4666 
L 2450 4666 
L 2450 531 
L 3481 531 
L 3481 0 
L 794 0 
L 794 531 
z
" transform="scale(0.015625)"/>
       </defs>
       <use xlink:href="#DejaVuSans-31"/>
       <use xlink:href="#DejaVuSans-30" x="63.623047"/>
       <use xlink:href="#DejaVuSans-30" x="127.246094"/>
       <use xlink:href="#DejaVuSans-30" x="190.869141"/>
       <use xlink:href="#DejaVuSans-30" x="254.492188"/>
       <use xlink:href="#DejaVuSans-30" x="318.115234"/>
       <use xlink:href="#DejaVuSans-30" x="381.738281"/>
      </g>
     </g>
    </g>
    <g id="text_7">
     <!-- Tranco Rank -->
     <g transform="translate(205.667812 335.860562) scale(0.1 -0.1)">
      <defs>
       <path id="DejaVuSans-54" d="M -19 4666 
L 3928 4666 
L 3928 4134 
L 2272 4134 
L 2272 0 
L 1638 0 
L 1638 4134 
L -19 4134 
L -19 4666 
z
" transform="scale(0.015625)"/>
       <path id="DejaVuSans-72" d="M 2631 2963 
Q 2534 3019 2420 3045 
Q 2306 3072 2169 3072 
Q 1681 3072 1420 2755 
Q 1159 2438 1159 1844 
L 1159 0 
L 581 0 
L 581 3500 
L 1159 3500 
L 1159 2956 
Q 1341 3275 1631 3429 
Q 1922 3584 2338 3584 
Q 2397 3584 2469 3576 
Q 2541 3569 2628 3553 
L 2631 2963 
z
" transform="scale(0.015625)"/>
       <path id="DejaVuSans-61" d="M 2194 1759 
Q 1497 1759 1228 1600 
Q 959 1441 959 1056 
Q 959 750 1161 570 
Q 1363 391 1709 391 
Q 2188 391 2477 730 
Q 2766 1069 2766 1631 
L 2766 1759 
L 2194 1759 
z
M 3341 1997 
L 3341 0 
L 2766 0 
L 2766 531 
Q 2569 213 2275 61 
Q 1981 -91 1556 -91 
Q 1019 -91 701 211 
Q 384 513 384 1019 
Q 384 1609 779 1909 
Q 1175 2209 1959 2209 
L 2766 2209 
L 2766 2266 
Q 2766 2663 2505 2880 
Q 2244 3097 1772 3097 
Q 1472 3097 1187 3025 
Q 903 2953 641 2809 
L 641 3341 
Q 956 3463 1253 3523 
Q 1550 3584 1831 3584 
Q 2591 3584 2966 3190 
Q 3341 2797 3341 1997 
z
" transform="scale(0.015625)"/>
       <path id="DejaVuSans-6e" d="M 3513 2113 
L 3513 0 
L 2938 0 
L 2938 2094 
Q 2938 2591 2744 2837 
Q 2550 3084 2163 3084 
Q 1697 3084 1428 2787 
Q 1159 2491 1159 1978 
L 1159 0 
L 581 0 
L 581 3500 
L 1159 3500 
L 1159 2956 
Q 1366 3272 1645 3428 
Q 1925 3584 2291 3584 
Q 2894 3584 3203 3211 
Q 3513 2838 3513 2113 
z
" transform="scale(0.015625)"/>
       <path id="DejaVuSans-63" d="M 3122 3366 
L 3122 2828 
Q 2878 2963 2633 3030 
Q 2388 3097 2138 3097 
Q 1578 3097 1268 2742 
Q 959 2388 959 1747 
Q 959 1106 1268 751 
Q 1578 397 2138 397 
Q 2388 397 2633 464 
Q 2878 531 3122 666 
L 3122 134 
Q 2881 22 2623 -34 
Q 2366 -91 2075 -91 
Q 1284 -91 818 406 
Q 353 903 353 1747 
Q 353 2603 823 3093 
Q 1294 3584 2113 3584 
Q 2378 3584 2631 3529 
Q 2884 3475 3122 3366 
z
" transform="scale(0.015625)"/>
       <path id="DejaVuSans-6f" d="M 1959 3097 
Q 1497 3097 1228 2736 
Q 959 2375 959 1747 
Q 959 1119 1226 758 
Q 1494 397 1959 397 
Q 2419 397 2687 759 
Q 2956 1122 2956 1747 
Q 2956 2369 2687 2733 
Q 2419 3097 1959 3097 
z
M 1959 3584 
Q 2709 3584 3137 3096 
Q 3566 2609 3566 1747 
Q 3566 888 3137 398 
Q 2709 -91 1959 -91 
Q 1206 -91 779 398 
Q 353 888 353 1747 
Q 353 2609 779 3096 
Q 1206 3584 1959 3584 
z
" transform="scale(0.015625)"/>
       <path id="DejaVuSans-20" transform="scale(0.015625)"/>
       <path id="DejaVuSans-52" d="M 2841 2188 
Q 3044 2119 3236 1894 
Q 3428 1669 3622 1275 
L 4263 0 
L 3584 0 
L 2988 1197 
Q 2756 1666 2539 1819 
Q 2322 1972 1947 1972 
L 1259 1972 
L 1259 0 
L 628 0 
L 628 4666 
L 2053 4666 
Q 2853 4666 3247 4331 
Q 3641 3997 3641 3322 
Q 3641 2881 3436 2590 
Q 3231 2300 2841 2188 
z
M 1259 4147 
L 1259 2491 
L 2053 2491 
Q 2509 2491 2742 2702 
Q 2975 2913 2975 3322 
Q 2975 3731 2742 3939 
Q 2509 4147 2053 4147 
L 1259 4147 
z
" transform="scale(0.015625)"/>
       <path id="DejaVuSans-6b" d="M 581 4863 
L 1159 4863 
L 1159 1991 
L 2875 3500 
L 3609 3500 
L 1753 1863 
L 3688 0 
L 2938 0 
L 1159 1709 
L 1159 0 
L 581 0 
L 581 4863 
z
" transform="scale(0.015625)"/>
      </defs>
      <use xlink:href="#DejaVuSans-54"/>
      <use xlink:href="#DejaVuSans-72" x="46.333984"/>
      <use xlink:href="#DejaVuSans-61" x="87.447266"/>
      <use xlink:href="#DejaVuSans-6e" x="148.726562"/>
      <use xlink:href="#DejaVuSans-63" x="212.105469"/>
      <use xlink:href="#DejaVuSans-6f" x="267.085938"/>
      <use xlink:href="#DejaVuSans-20" x="328.267578"/>
      <use xlink:href="#DejaVuSans-52" x="360.054688"/>
      <use xlink:href="#DejaVuSans-61" x="427.287109"/>
      <use xlink:href="#DejaVuSans-6e" x="488.566406"/>
      <use xlink:href="#DejaVuSans-6b" x="551.945312"/>
     </g>
    </g>
   </g>
   <g id="matplotlib.axis_2">
    <g id="ytick_1">
     <g id="line2d_13">
      <path d="M 57.6 307.584 
L 414.72 307.584 
" clip-path="url(#p925a989077)" style="fill: none; stroke: #b0b0b0; stroke-width: 0.8; stroke-linecap: square"/>
     </g>
     <g id="line2d_14">
      <defs>
       <path id="m5c483f7971" d="M 0 0 
L -3.5 0 
" style="stroke: #000000; stroke-width: 0.8"/>
      </defs>
      <g>
       <use xlink:href="#m5c483f7971" x="57.6" y="307.584" style="stroke: #000000; stroke-width: 0.8"/>
      </g>
     </g>
     <g id="text_8">
      <!-- 0 -->
      <g transform="translate(44.2375 311.383219) scale(0.1 -0.1)">
       <use xlink:href="#DejaVuSans-30"/>
      </g>
     </g>
    </g>
    <g id="ytick_2">
     <g id="line2d_15">
      <path d="M 57.6 274.32 
L 414.72 274.32 
" clip-path="url(#p925a989077)" style="fill: none; stroke: #b0b0b0; stroke-width: 0.8; stroke-linecap: square"/>
     </g>
     <g id="line2d_16">
      <g>
       <use xlink:href="#m5c483f7971" x="57.6" y="274.32" style="stroke: #000000; stroke-width: 0.8"/>
      </g>
     </g>
     <g id="text_9">
      <!-- 5 -->
      <g transform="translate(44.2375 278.119219) scale(0.1 -0.1)">
       <defs>
        <path id="DejaVuSans-35" d="M 691 4666 
L 3169 4666 
L 3169 4134 
L 1269 4134 
L 1269 2991 
Q 1406 3038 1543 3061 
Q 1681 3084 1819 3084 
Q 2600 3084 3056 2656 
Q 3513 2228 3513 1497 
Q 3513 744 3044 326 
Q 2575 -91 1722 -91 
Q 1428 -91 1123 -41 
Q 819 9 494 109 
L 494 744 
Q 775 591 1075 516 
Q 1375 441 1709 441 
Q 2250 441 2565 725 
Q 2881 1009 2881 1497 
Q 2881 1984 2565 2268 
Q 2250 2553 1709 2553 
Q 1456 2553 1204 2497 
Q 953 2441 691 2322 
L 691 4666 
z
" transform="scale(0.015625)"/>
       </defs>
       <use xlink:href="#DejaVuSans-35"/>
      </g>
     </g>
    </g>
    <g id="ytick_3">
     <g id="line2d_17">
      <path d="M 57.6 241.056 
L 414.72 241.056 
" clip-path="url(#p925a989077)" style="fill: none; stroke: #b0b0b0; stroke-width: 0.8; stroke-linecap: square"/>
     </g>
     <g id="line2d_18">
      <g>
       <use xlink:href="#m5c483f7971" x="57.6" y="241.056" style="stroke: #000000; stroke-width: 0.8"/>
      </g>
     </g>
     <g id="text_10">
      <!-- 10 -->
      <g transform="translate(37.875 244.855219) scale(0.1 -0.1)">
       <use xlink:href="#DejaVuSans-31"/>
       <use xlink:href="#DejaVuSans-30" x="63.623047"/>
      </g>
     </g>
    </g>
    <g id="ytick_4">
     <g id="line2d_19">
      <path d="M 57.6 207.792 
L 414.72 207.792 
" clip-path="url(#p925a989077)" style="fill: none; stroke: #b0b0b0; stroke-width: 0.8; stroke-linecap: square"/>
     </g>
     <g id="line2d_20">
      <g>
       <use xlink:href="#m5c483f7971" x="57.6" y="207.792" style="stroke: #000000; stroke-width: 0.8"/>
      </g>
     </g>
     <g id="text_11">
      <!-- 15 -->
      <g transform="translate(37.875 211.591219) scale(0.1 -0.1)">
       <use xlink:href="#DejaVuSans-31"/>
       <use xlink:href="#DejaVuSans-35" x="63.623047"/>
      </g>
     </g>
    </g>
    <g id="ytick_5">
     <g id="line2d_21">
      <path d="M 57.6 174.528 
L 414.72 174.528 
" clip-path="url(#p925a989077)" style="fill: none; stroke: #b0b0b0; stroke-width: 0.8; stroke-linecap: square"/>
     </g>
     <g id="line2d_22">
      <g>
       <use xlink:href="#m5c483f7971" x="57.6" y="174.528" style="stroke: #000000; stroke-width: 0.8"/>
      </g>
     </g>
     <g id="text_12">
      <!-- 20 -->
      <g transform="translate(37.875 178.327219) scale(0.1 -0.1)">
       <use xlink:href="#DejaVuSans-32"/>
       <use xlink:href="#DejaVuSans-30" x="63.623047"/>
      </g>
     </g>
    </g>
    <g id="ytick_6">
     <g id="line2d_23">
      <path d="M 57.6 141.264 
L 414.72 141.264 
" clip-path="url(#p925a989077)" style="fill: none; stroke: #b0b0b0; stroke-width: 0.8; stroke-linecap: square"/>
     </g>
     <g id="line2d_24">
      <g>
       <use xlink:href="#m5c483f7971" x="57.6" y="141.264" style="stroke: #000000; stroke-width: 0.8"/>
      </g>
     </g>
     <g id="text_13">
      <!-- 25 -->
      <g transform="translate(37.875 145.063219) scale(0.1 -0.1)">
       <use xlink:href="#DejaVuSans-32"/>
       <use xlink:href="#DejaVuSans-35" x="63.623047"/>
      </g>
     </g>
    </g>
    <g id="ytick_7">
     <g id="line2d_25">
      <path d="M 57.6 108 
L 414.72 108 
" clip-path="url(#p925a989077)" style="fill: none; stroke: #b0b0b0; stroke-width: 0.8; stroke-linecap: square"/>
     </g>
     <g id="line2d_26">
      <g>
       <use xlink:href="#m5c483f7971" x="57.6" y="108" style="stroke: #000000; stroke-width: 0.8"/>
      </g>
     </g>
     <g id="text_14">
      <!-- 30 -->
      <g transform="translate(37.875 111.799219) scale(0.1 -0.1)">
       <defs>
        <path id="DejaVuSans-33" d="M 2597 2516 
Q 3050 2419 3304 2112 
Q 3559 1806 3559 1356 
Q 3559 666 3084 287 
Q 2609 -91 1734 -91 
Q 1441 -91 1130 -33 
Q 819 25 488 141 
L 488 750 
Q 750 597 1062 519 
Q 1375 441 1716 441 
Q 2309 441 2620 675 
Q 2931 909 2931 1356 
Q 2931 1769 2642 2001 
Q 2353 2234 1838 2234 
L 1294 2234 
L 1294 2753 
L 1863 2753 
Q 2328 2753 2575 2939 
Q 2822 3125 2822 3475 
Q 2822 3834 2567 4026 
Q 2313 4219 1838 4219 
Q 1578 4219 1281 4162 
Q 984 4106 628 3988 
L 628 4550 
Q 988 4650 1302 4700 
Q 1616 4750 1894 4750 
Q 2613 4750 3031 4423 
Q 3450 4097 3450 3541 
Q 3450 3153 3228 2886 
Q 3006 2619 2597 2516 
z
" transform="scale(0.015625)"/>
       </defs>
       <use xlink:href="#DejaVuSans-33"/>
       <use xlink:href="#DejaVuSans-30" x="63.623047"/>
      </g>
     </g>
    </g>
    <g id="ytick_8">
     <g id="line2d_27">
      <path d="M 57.6 74.736 
L 414.72 74.736 
" clip-path="url(#p925a989077)" style="fill: none; stroke: #b0b0b0; stroke-width: 0.8; stroke-linecap: square"/>
     </g>
     <g id="line2d_28">
      <g>
       <use xlink:href="#m5c483f7971" x="57.6" y="74.736" style="stroke: #000000; stroke-width: 0.8"/>
      </g>
     </g>
     <g id="text_15">
      <!-- 35 -->
      <g transform="translate(37.875 78.535219) scale(0.1 -0.1)">
       <use xlink:href="#DejaVuSans-33"/>
       <use xlink:href="#DejaVuSans-35" x="63.623047"/>
      </g>
     </g>
    </g>
    <g id="ytick_9">
     <g id="line2d_29">
      <path d="M 57.6 41.472 
L 414.72 41.472 
" clip-path="url(#p925a989077)" style="fill: none; stroke: #b0b0b0; stroke-width: 0.8; stroke-linecap: square"/>
     </g>
     <g id="line2d_30">
      <g>
       <use xlink:href="#m5c483f7971" x="57.6" y="41.472" style="stroke: #000000; stroke-width: 0.8"/>
      </g>
     </g>
     <g id="text_16">
      <!-- 40 -->
      <g transform="translate(37.875 45.271219) scale(0.1 -0.1)">
       <use xlink:href="#DejaVuSans-34"/>
       <use xlink:href="#DejaVuSans-30" x="63.623047"/>
      </g>
     </g>
    </g>
    <g id="text_17">
     <!-- % of scanned domains -->
     <g transform="translate(31.795312 231.202219) rotate(-90) scale(0.1 -0.1)">
      <defs>
       <path id="DejaVuSans-25" d="M 4653 2053 
Q 4381 2053 4226 1822 
Q 4072 1591 4072 1178 
Q 4072 772 4226 539 
Q 4381 306 4653 306 
Q 4919 306 5073 539 
Q 5228 772 5228 1178 
Q 5228 1588 5073 1820 
Q 4919 2053 4653 2053 
z
M 4653 2450 
Q 5147 2450 5437 2106 
Q 5728 1763 5728 1178 
Q 5728 594 5436 251 
Q 5144 -91 4653 -91 
Q 4153 -91 3862 251 
Q 3572 594 3572 1178 
Q 3572 1766 3864 2108 
Q 4156 2450 4653 2450 
z
M 1428 4353 
Q 1159 4353 1004 4120 
Q 850 3888 850 3481 
Q 850 3069 1003 2837 
Q 1156 2606 1428 2606 
Q 1700 2606 1854 2837 
Q 2009 3069 2009 3481 
Q 2009 3884 1853 4118 
Q 1697 4353 1428 4353 
z
M 4250 4750 
L 4750 4750 
L 1831 -91 
L 1331 -91 
L 4250 4750 
z
M 1428 4750 
Q 1922 4750 2215 4408 
Q 2509 4066 2509 3481 
Q 2509 2891 2217 2550 
Q 1925 2209 1428 2209 
Q 931 2209 642 2551 
Q 353 2894 353 3481 
Q 353 4063 643 4406 
Q 934 4750 1428 4750 
z
" transform="scale(0.015625)"/>
       <path id="DejaVuSans-66" d="M 2375 4863 
L 2375 4384 
L 1825 4384 
Q 1516 4384 1395 4259 
Q 1275 4134 1275 3809 
L 1275 3500 
L 2222 3500 
L 2222 3053 
L 1275 3053 
L 1275 0 
L 697 0 
L 697 3053 
L 147 3053 
L 147 3500 
L 697 3500 
L 697 3744 
Q 697 4328 969 4595 
Q 1241 4863 1831 4863 
L 2375 4863 
z
" transform="scale(0.015625)"/>
       <path id="DejaVuSans-73" d="M 2834 3397 
L 2834 2853 
Q 2591 2978 2328 3040 
Q 2066 3103 1784 3103 
Q 1356 3103 1142 2972 
Q 928 2841 928 2578 
Q 928 2378 1081 2264 
Q 1234 2150 1697 2047 
L 1894 2003 
Q 2506 1872 2764 1633 
Q 3022 1394 3022 966 
Q 3022 478 2636 193 
Q 2250 -91 1575 -91 
Q 1294 -91 989 -36 
Q 684 19 347 128 
L 347 722 
Q 666 556 975 473 
Q 1284 391 1588 391 
Q 1994 391 2212 530 
Q 2431 669 2431 922 
Q 2431 1156 2273 1281 
Q 2116 1406 1581 1522 
L 1381 1569 
Q 847 1681 609 1914 
Q 372 2147 372 2553 
Q 372 3047 722 3315 
Q 1072 3584 1716 3584 
Q 2034 3584 2315 3537 
Q 2597 3491 2834 3397 
z
" transform="scale(0.015625)"/>
       <path id="DejaVuSans-65" d="M 3597 1894 
L 3597 1613 
L 953 1613 
Q 991 1019 1311 708 
Q 1631 397 2203 397 
Q 2534 397 2845 478 
Q 3156 559 3463 722 
L 3463 178 
Q 3153 47 2828 -22 
Q 2503 -91 2169 -91 
Q 1331 -91 842 396 
Q 353 884 353 1716 
Q 353 2575 817 3079 
Q 1281 3584 2069 3584 
Q 2775 3584 3186 3129 
Q 3597 2675 3597 1894 
z
M 3022 2063 
Q 3016 2534 2758 2815 
Q 2500 3097 2075 3097 
Q 1594 3097 1305 2825 
Q 1016 2553 972 2059 
L 3022 2063 
z
" transform="scale(0.015625)"/>
       <path id="DejaVuSans-64" d="M 2906 2969 
L 2906 4863 
L 3481 4863 
L 3481 0 
L 2906 0 
L 2906 525 
Q 2725 213 2448 61 
Q 2172 -91 1784 -91 
Q 1150 -91 751 415 
Q 353 922 353 1747 
Q 353 2572 751 3078 
Q 1150 3584 1784 3584 
Q 2172 3584 2448 3432 
Q 2725 3281 2906 2969 
z
M 947 1747 
Q 947 1113 1208 752 
Q 1469 391 1925 391 
Q 2381 391 2643 752 
Q 2906 1113 2906 1747 
Q 2906 2381 2643 2742 
Q 2381 3103 1925 3103 
Q 1469 3103 1208 2742 
Q 947 2381 947 1747 
z
" transform="scale(0.015625)"/>
       <path id="DejaVuSans-6d" d="M 3328 2828 
Q 3544 3216 3844 3400 
Q 4144 3584 4550 3584 
Q 5097 3584 5394 3201 
Q 5691 2819 5691 2113 
L 5691 0 
L 5113 0 
L 5113 2094 
Q 5113 2597 4934 2840 
Q 4756 3084 4391 3084 
Q 3944 3084 3684 2787 
Q 3425 2491 3425 1978 
L 3425 0 
L 2847 0 
L 2847 2094 
Q 2847 2600 2669 2842 
Q 2491 3084 2119 3084 
Q 1678 3084 1418 2786 
Q 1159 2488 1159 1978 
L 1159 0 
L 581 0 
L 581 3500 
L 1159 3500 
L 1159 2956 
Q 1356 3278 1631 3431 
Q 1906 3584 2284 3584 
Q 2666 3584 2933 3390 
Q 3200 3197 3328 2828 
z
" transform="scale(0.015625)"/>
       <path id="DejaVuSans-69" d="M 603 3500 
L 1178 3500 
L 1178 0 
L 603 0 
L 603 3500 
z
M 603 4863 
L 1178 4863 
L 1178 4134 
L 603 4134 
L 603 4863 
z
" transform="scale(0.015625)"/>
      </defs>
      <use xlink:href="#DejaVuSans-25"/>
      <use xlink:href="#DejaVuSans-20" x="95.019531"/>
      <use xlink:href="#DejaVuSans-6f" x="126.806641"/>
      <use xlink:href="#DejaVuSans-66" x="187.988281"/>
      <use xlink:href="#DejaVuSans-20" x="223.193359"/>
      <use xlink:href="#DejaVuSans-73" x="254.980469"/>
      <use xlink:href="#DejaVuSans-63" x="307.080078"/>
      <use xlink:href="#DejaVuSans-61" x="362.060547"/>
      <use xlink:href="#DejaVuSans-6e" x="423.339844"/>
      <use xlink:href="#DejaVuSans-6e" x="486.71875"/>
      <use xlink:href="#DejaVuSans-65" x="550.097656"/>
      <use xlink:href="#DejaVuSans-64" x="611.621094"/>
      <use xlink:href="#DejaVuSans-20" x="675.097656"/>
      <use xlink:href="#DejaVuSans-64" x="706.884766"/>
      <use xlink:href="#DejaVuSans-6f" x="770.361328"/>
      <use xlink:href="#DejaVuSans-6d" x="831.542969"/>
      <use xlink:href="#DejaVuSans-61" x="928.955078"/>
      <use xlink:href="#DejaVuSans-69" x="990.234375"/>
      <use xlink:href="#DejaVuSans-6e" x="1018.017578"/>
      <use xlink:href="#DejaVuSans-73" x="1081.396484"/>
     </g>
    </g>
   </g>
   <g id="patch_303">
    <path d="M 57.6 307.584 
L 57.6 41.472 
" style="fill: none; stroke: #000000; stroke-width: 0.8; stroke-linejoin: miter; stroke-linecap: square"/>
   </g>
   <g id="patch_304">
    <path d="M 414.72 307.584 
L 414.72 41.472 
" style="fill: none; stroke: #000000; stroke-width: 0.8; stroke-linejoin: miter; stroke-linecap: square"/>
   </g>
   <g id="patch_305">
    <path d="M 57.6 307.584 
L 414.72 307.584 
" style="fill: none; stroke: #000000; stroke-width: 0.8; stroke-linejoin: miter; stroke-linecap: square"/>
   </g>
   <g id="patch_306">
    <path d="M 57.6 41.472 
L 414.72 41.472 
" style="fill: none; stroke: #000000; stroke-width: 0.8; stroke-linejoin: miter; stroke-linecap: square"/>
   </g>
   <g id="legend_1">
    <g id="patch_307">
     <path d="M 256.095 93.506375 
L 407.72 93.506375 
Q 409.72 93.506375 409.72 91.506375 
L 409.72 48.472 
Q 409.72 46.472 407.72 46.472 
L 256.095 46.472 
Q 254.095 46.472 254.095 48.472 
L 254.095 91.506375 
Q 254.095 93.506375 256.095 93.506375 
z
" style="fill: #ffffff; opacity: 0.8; stroke: #cccccc; stroke-linejoin: miter"/>
    </g>
    <g id="patch_308">
     <path d="M 258.095 58.070438 
L 278.095 58.070438 
L 278.095 51.070438 
L 258.095 51.070438 
z
" style="fill: #1f77b4"/>
    </g>
    <g id="text_18">
     <!-- HTTP/1.1 -->
     <g transform="translate(286.095 58.070438) scale(0.1 -0.1)">
      <defs>
       <path id="DejaVuSans-48" d="M 628 4666 
L 1259 4666 
L 1259 2753 
L 3553 2753 
L 3553 4666 
L 4184 4666 
L 4184 0 
L 3553 0 
L 3553 2222 
L 1259 2222 
L 1259 0 
L 628 0 
L 628 4666 
z
" transform="scale(0.015625)"/>
       <path id="DejaVuSans-50" d="M 1259 4147 
L 1259 2394 
L 2053 2394 
Q 2494 2394 2734 2622 
Q 2975 2850 2975 3272 
Q 2975 3691 2734 3919 
Q 2494 4147 2053 4147 
L 1259 4147 
z
M 628 4666 
L 2053 4666 
Q 2838 4666 3239 4311 
Q 3641 3956 3641 3272 
Q 3641 2581 3239 2228 
Q 2838 1875 2053 1875 
L 1259 1875 
L 1259 0 
L 628 0 
L 628 4666 
z
" transform="scale(0.015625)"/>
       <path id="DejaVuSans-2f" d="M 1625 4666 
L 2156 4666 
L 531 -594 
L 0 -594 
L 1625 4666 
z
" transform="scale(0.015625)"/>
       <path id="DejaVuSans-2e" d="M 684 794 
L 1344 794 
L 1344 0 
L 684 0 
L 684 794 
z
" transform="scale(0.015625)"/>
      </defs>
      <use xlink:href="#DejaVuSans-48"/>
      <use xlink:href="#DejaVuSans-54" x="75.195312"/>
      <use xlink:href="#DejaVuSans-54" x="134.529297"/>
      <use xlink:href="#DejaVuSans-50" x="195.613281"/>
      <use xlink:href="#DejaVuSans-2f" x="255.916016"/>
      <use xlink:href="#DejaVuSans-31" x="289.607422"/>
      <use xlink:href="#DejaVuSans-2e" x="353.230469"/>
      <use xlink:href="#DejaVuSans-31" x="385.017578"/>
     </g>
    </g>
    <g id="patch_309">
     <path d="M 258.095 72.748563 
L 278.095 72.748563 
L 278.095 65.748563 
L 258.095 65.748563 
z
" style="fill: #ff7f0e"/>
    </g>
    <g id="text_19">
     <!-- HTTP/2 Prior Knowledge -->
     <g transform="translate(286.095 72.748563) scale(0.1 -0.1)">
      <defs>
       <path id="DejaVuSans-4b" d="M 628 4666 
L 1259 4666 
L 1259 2694 
L 3353 4666 
L 4166 4666 
L 1850 2491 
L 4331 0 
L 3500 0 
L 1259 2247 
L 1259 0 
L 628 0 
L 628 4666 
z
" transform="scale(0.015625)"/>
       <path id="DejaVuSans-77" d="M 269 3500 
L 844 3500 
L 1563 769 
L 2278 3500 
L 2956 3500 
L 3675 769 
L 4391 3500 
L 4966 3500 
L 4050 0 
L 3372 0 
L 2619 2869 
L 1863 0 
L 1184 0 
L 269 3500 
z
" transform="scale(0.015625)"/>
       <path id="DejaVuSans-6c" d="M 603 4863 
L 1178 4863 
L 1178 0 
L 603 0 
L 603 4863 
z
" transform="scale(0.015625)"/>
       <path id="DejaVuSans-67" d="M 2906 1791 
Q 2906 2416 2648 2759 
Q 2391 3103 1925 3103 
Q 1463 3103 1205 2759 
Q 947 2416 947 1791 
Q 947 1169 1205 825 
Q 1463 481 1925 481 
Q 2391 481 2648 825 
Q 2906 1169 2906 1791 
z
M 3481 434 
Q 3481 -459 3084 -895 
Q 2688 -1331 1869 -1331 
Q 1566 -1331 1297 -1286 
Q 1028 -1241 775 -1147 
L 775 -588 
Q 1028 -725 1275 -790 
Q 1522 -856 1778 -856 
Q 2344 -856 2625 -561 
Q 2906 -266 2906 331 
L 2906 616 
Q 2728 306 2450 153 
Q 2172 0 1784 0 
Q 1141 0 747 490 
Q 353 981 353 1791 
Q 353 2603 747 3093 
Q 1141 3584 1784 3584 
Q 2172 3584 2450 3431 
Q 2728 3278 2906 2969 
L 2906 3500 
L 3481 3500 
L 3481 434 
z
" transform="scale(0.015625)"/>
      </defs>
      <use xlink:href="#DejaVuSans-48"/>
      <use xlink:href="#DejaVuSans-54" x="75.195312"/>
      <use xlink:href="#DejaVuSans-54" x="134.529297"/>
      <use xlink:href="#DejaVuSans-50" x="195.613281"/>
      <use xlink:href="#DejaVuSans-2f" x="255.916016"/>
      <use xlink:href="#DejaVuSans-32" x="289.607422"/>
      <use xlink:href="#DejaVuSans-20" x="353.230469"/>
      <use xlink:href="#DejaVuSans-50" x="385.017578"/>
      <use xlink:href="#DejaVuSans-72" x="443.570312"/>
      <use xlink:href="#DejaVuSans-69" x="484.683594"/>
      <use xlink:href="#DejaVuSans-6f" x="512.466797"/>
      <use xlink:href="#DejaVuSans-72" x="573.648438"/>
      <use xlink:href="#DejaVuSans-20" x="614.761719"/>
      <use xlink:href="#DejaVuSans-4b" x="646.548828"/>
      <use xlink:href="#DejaVuSans-6e" x="712.125"/>
      <use xlink:href="#DejaVuSans-6f" x="775.503906"/>
      <use xlink:href="#DejaVuSans-77" x="836.685547"/>
      <use xlink:href="#DejaVuSans-6c" x="918.472656"/>
      <use xlink:href="#DejaVuSans-65" x="946.255859"/>
      <use xlink:href="#DejaVuSans-64" x="1007.779297"/>
      <use xlink:href="#DejaVuSans-67" x="1071.255859"/>
      <use xlink:href="#DejaVuSans-65" x="1134.732422"/>
     </g>
    </g>
    <g id="patch_310">
     <path d="M 258.095 87.426688 
L 278.095 87.426688 
L 278.095 80.426688 
L 258.095 80.426688 
z
" style="fill: #2ca02c"/>
    </g>
    <g id="text_20">
     <!-- HTTP/2 Upgrade -->
     <g transform="translate(286.095 87.426688) scale(0.1 -0.1)">
      <defs>
       <path id="DejaVuSans-55" d="M 556 4666 
L 1191 4666 
L 1191 1831 
Q 1191 1081 1462 751 
Q 1734 422 2344 422 
Q 2950 422 3222 751 
Q 3494 1081 3494 1831 
L 3494 4666 
L 4128 4666 
L 4128 1753 
Q 4128 841 3676 375 
Q 3225 -91 2344 -91 
Q 1459 -91 1007 375 
Q 556 841 556 1753 
L 556 4666 
z
" transform="scale(0.015625)"/>
       <path id="DejaVuSans-70" d="M 1159 525 
L 1159 -1331 
L 581 -1331 
L 581 3500 
L 1159 3500 
L 1159 2969 
Q 1341 3281 1617 3432 
Q 1894 3584 2278 3584 
Q 2916 3584 3314 3078 
Q 3713 2572 3713 1747 
Q 3713 922 3314 415 
Q 2916 -91 2278 -91 
Q 1894 -91 1617 61 
Q 1341 213 1159 525 
z
M 3116 1747 
Q 3116 2381 2855 2742 
Q 2594 3103 2138 3103 
Q 1681 3103 1420 2742 
Q 1159 2381 1159 1747 
Q 1159 1113 1420 752 
Q 1681 391 2138 391 
Q 2594 391 2855 752 
Q 3116 1113 3116 1747 
z
" transform="scale(0.015625)"/>
      </defs>
      <use xlink:href="#DejaVuSans-48"/>
      <use xlink:href="#DejaVuSans-54" x="75.195312"/>
      <use xlink:href="#DejaVuSans-54" x="134.529297"/>
      <use xlink:href="#DejaVuSans-50" x="195.613281"/>
      <use xlink:href="#DejaVuSans-2f" x="255.916016"/>
      <use xlink:href="#DejaVuSans-32" x="289.607422"/>
      <use xlink:href="#DejaVuSans-20" x="353.230469"/>
      <use xlink:href="#DejaVuSans-55" x="385.017578"/>
      <use xlink:href="#DejaVuSans-70" x="458.210938"/>
      <use xlink:href="#DejaVuSans-67" x="521.6875"/>
      <use xlink:href="#DejaVuSans-72" x="585.164062"/>
      <use xlink:href="#DejaVuSans-61" x="626.277344"/>
      <use xlink:href="#DejaVuSans-64" x="687.556641"/>
      <use xlink:href="#DejaVuSans-65" x="751.033203"/>
     </g>
    </g>
   </g>
  </g>
 </g>
 <defs>
  <clipPath id="p925a989077">
   <rect x="57.6" y="41.472" width="357.12" height="266.112"/>
  </clipPath>
 </defs>
</svg>
