<svg xmlns="http://www.w3.org/2000/svg" id="svg10" version="1.1" viewBox="0 0 36 36">
  <metadata id="metadata16">
    
      
        image/svg+xml
        
      
    
  </metadata>
  <defs id="defs14"/>
  
  <path id="path951" d="M 3,4 C 3,1.791 4.791,0 7,0 h 22 c 2.209,0 4,1.791 4,4 v 28 c 0,2.209 -1.791,4 -4,4 H 7 C 4.791,36 3,34.209 3,32 Z" fill="#ccd6dd"/>
  <path id="path953" d="m 7,14.669716 c 0,-0.553 0.447,-1 1,-1 h 20 c 0.552,0 1,0.447 1,1 0,0.553 -0.448,1 -1,1 H 8 c -0.553,0 -1,-0.447 -1,-1 z m 16,-4 c 0,-0.553 0.448,-0.9999997 1,-0.9999997 h 4 c 0.552,0 1,0.4469997 1,0.9999997 0,0.553 -0.448,1 -1,1 h -4 c -0.552,0 -1,-0.447 -1,-1 z m -16,20 c 0,-0.552 0.447,-1 1,-1 h 20 c 0.552,0 1,0.448 1,1 0,0.552 -0.448,1 -1,1 H 8 c -0.553,0 -1,-0.448 -1,-1 z m 0,-4 c 0,-0.553 0.447,-1 1,-1 h 20 c 0.552,0 1,0.447 1,1 0,0.553 -0.448,1 -1,1 H 8 c -0.553,0 -1,-0.447 -1,-1 z m 0,-4 c 0,-0.553 0.447,-1 1,-1 h 20 c 0.552,0 1,0.447 1,1 0,0.553 -0.448,1 -1,1 H 8 c -0.553,0 -1,-0.447 -1,-1 z m 0,-4 c 0,-0.553 0.447,-1 1,-1 h 20 c 0.552,0 1,0.447 1,1 0,0.553 -0.448,1 -1,1 H 8 c -0.553,0 -1,-0.447 -1,-1 z" fill="#99aab5"/>
  <g transform="matrix(0.90465978,0,0,0.90465978,20.836574,-9.6788969)" id="g1560">
    <path d="m -11.085386,23.907438 c -0.293652,-0.101512 -0.727427,0.109192 -1.001583,-0.03701 -0.274157,-0.1462 -0.340877,-0.623803 -0.588788,-0.81109 -0.24791,-0.187288 -0.725566,-0.12094 -0.941126,-0.344703 -0.21556,-0.223763 -0.131427,-0.698608 -0.309329,-0.953338 -0.177902,-0.254729 -0.652682,-0.339232 -0.788545,-0.618655 -0.135864,-0.279423 0.09089,-0.70503 4.07e-4,-1.002266 -0.09048,-0.297237 -0.515909,-0.524319 -0.558776,-0.83205 -0.04287,-0.307731 0.304305,-0.642438 0.310105,-0.953086 0.0058,-0.310649 -0.328635,-0.658082 -0.27431,-0.963998 0.05432,-0.305917 0.487936,-0.516959 0.589448,-0.810611 0.101512,-0.293652 -0.109193,-0.727426 0.03701,-1.001583 0.1462,-0.274156 0.623803,-0.340877 0.81109,-0.588787 0.187287,-0.247911 0.120939,-0.725566 0.344702,-0.941126 0.223764,-0.215561 0.698609,-0.131428 0.953339,-0.30933 0.254729,-0.177902 0.339232,-0.652682 0.618655,-0.788545 0.279423,-0.135863 0.70503,0.09089 1.002266,4.08e-4 0.297237,-0.09048 0.524319,-0.515909 0.83205,-0.558776 0.3077313,-0.04287 0.6424376,0.304304 0.9530861,0.310105 0.3106484,0.0058 0.6580813,-0.328635 0.9639978,-0.27431 0.3059165,0.05433 0.5169591,0.487935 0.8106109,0.589447 0.2936518,0.101512 0.7274264,-0.109192 1.0015828,0.03701 0.2741566,0.1462 0.3408771,0.623804 0.5887876,0.811091 0.2479105,0.187287 0.7255659,0.120939 0.941126,0.344702 0.2155602,0.223763 0.1314275,0.698609 0.3093296,0.953338 0.177902,0.254729 0.6526819,0.339232 0.7885451,0.618655 0.1358634,0.279423 -0.090887,0.70503 -4.077e-4,1.002267 0.090479,0.297236 0.5159089,0.524318 0.5587761,0.832049 0.042867,0.307732 -0.3043049,0.642438 -0.3101052,0.953087 -0.0058,0.310648 0.3286351,0.658081 0.2743101,0.963997 -0.054325,0.305917 -0.4879353,0.516959 -0.5894474,0.810611 -0.1015121,0.293652 0.1091922,0.727427 -0.037007,1.001583 -0.1461996,0.274157 -0.6238032,0.340877 -0.8110903,0.588788 -0.1872871,0.24791 -0.1209391,0.725565 -0.3447022,0.941126 -0.2237631,0.21556 -0.6986088,0.131427 -0.9533381,0.309329 -0.2547291,0.177902 -0.3392321,0.652682 -0.6186551,0.788545 -0.2794231,0.135864 -0.7050298,-0.09089 -1.0022665,-4.07e-4 -0.2972366,0.09048 -0.5243187,0.515908 -0.8320499,0.558776 -0.3077312,0.04287 -0.6424376,-0.304305 -0.9530861,-0.310106 -0.3106484,-0.0058 -0.6580813,0.328636 -0.9639973,0.274311 -0.305917,-0.05433 -0.516959,-0.487936 -0.810611,-0.589448 z" id="path1554" style="fill:#be1931;fill-opacity:1;stroke-width:0.0322463"/>
    <ellipse ry="4.7132444" rx="4.713244" cy="18.462788" cx="-9.2032347" id="path1556" style="fill:none;fill-opacity:1;stroke:#ea596e;stroke-width:0.358687;stroke-miterlimit:4;stroke-dasharray:none;stroke-opacity:1"/>
    <path d="m -11.787958,22.194949 v 10e-4 l 2.0848152,0.492578 z m -0.51923,1.714642 -1.939373,5.805536 1.414221,-0.505643 0.789087,1.287965 1.730065,-5.794206 c -0.0019,-3.14e-4 -0.004,3.45e-4 -0.0059,0 -0.305916,-0.05432 -0.51678,-0.48879 -0.810432,-0.590303 -0.293651,-0.101515 -0.727779,0.109674 -1.001935,-0.03652 -0.07004,-0.03735 -0.126265,-0.09658 -0.175709,-0.166825 z" style="fill:#6e0e1d;fill-opacity:1;stroke:none;stroke-width:0.637473;stroke-miterlimit:4;stroke-dasharray:none;stroke-opacity:1" id="rect1580-3"/>
    <path d="m -5.6550578,23.252846 c -0.08636,0.02063 -0.166628,0.04814 -0.231975,0.09378 -0.254729,0.177902 -0.339507,0.652853 -0.61893,0.788716 -0.279423,0.135863 -0.704699,-0.09048 -1.001935,0 -0.03452,0.01051 -0.06585,0.03686 -0.09871,0.05528 l 1.122782,4.125049 0.813846,-0.946748 1.348568,0.279292 z" style="fill:#6e0e1d;fill-opacity:1;stroke:none;stroke-width:0.637473;stroke-miterlimit:4;stroke-dasharray:none;stroke-opacity:1" id="rect1580-3-6"/>
  </g>
</svg>