<svg xmlns="http://www.w3.org/2000/svg" id="svg14" version="1.1" viewBox="0 0 36 36">
  <metadata id="metadata20">
    
      
        image/svg+xml
        
        
      
    
  </metadata>
  <defs id="defs18">
    
  </defs>
  
  <path d="M 0.001,6.8839998 H 35.999 V 29.238283 c 0,1.455076 -2.652806,2.633639 -2.652806,2.633639 H 2.1524154 c 0,0 -2.13383824,-1.17661 -2.1514154,-2.477654 z" style="fill:#f5f8fa;fill-opacity:1;stroke:none;stroke-width:0.0157754;stroke-miterlimit:4;stroke-dasharray:none;stroke-opacity:1" id="rect2562"/>
  <path d="m 37.73317,5.3519001 v 2.0976562 a 18.5,6.9137128 0 0 0 18,5.3183587 18.5,6.9137128 0 0 0 18,-5.3183587 V 5.3519001 h -0.008 A 18,6.913713 0 0 1 55.73317,12.058931 18,6.913713 0 0 1 37.74098,5.3519001 Z m 0.008,6.7070309 v 0.933594 a 18.5,6.9137128 0 0 0 17.992,5.30664 18.5,6.9137128 0 0 0 18,-5.318359 V 12.07065 a 18.5,6.9137128 0 0 1 -17.99219,5.30664 18.5,6.9137128 0 0 1 -18,-5.318359 z m 0,5.529297 v 1.183594 a 18.5,6.9137128 0 0 0 17.992,5.30664 18.5,6.9137128 0 0 0 18,-5.318359 V 17.6019 a 18.5,6.9137128 0 0 1 -17.99219,5.30664 18.5,6.9137128 0 0 1 -18,-5.320312 z m 0,5.78125 v 0.921875 0.01172 a 18.5,6.9137128 0 0 0 17.992,5.306639 18.5,6.9137128 0 0 0 18,-5.318359 v -0.910156 a 18.5,6.9137128 0 0 1 -17.99219,5.30664 18.5,6.9137128 0 0 1 -18,-5.318359 z" style="fill:#f5f8fa;fill-opacity:1;stroke-width:1.11597" id="rect1523"/>
  <ellipse ry="6.9135227" rx="18" cy="6.9135227" cx="18" id="path1415-0-2" style="fill:#9aaab4;fill-opacity:1;stroke:none;stroke-width:0.000999984;stroke-miterlimit:4;stroke-dasharray:none;stroke-opacity:1"/>
  <path d="M 0 26.072266 L 0 30.662109 L 0.017578125 30.695312 A 18.499902 6.9135223 0 0 0 18.007812 36 A 18.499902 6.9135223 0 0 0 36 30.693359 L 36 26.072266 A 18.499902 6.9135223 0 0 1 18 31.390625 A 18.499902 6.9135223 0 0 1 0 26.072266 z" style="fill:#9aaab4;fill-opacity:1;stroke:none;stroke-width:0.000999984;stroke-miterlimit:4;stroke-dasharray:none;stroke-opacity:1" id="rect1422-3-5-9"/>
  <path d="M 0 20.529297 L 0 25.123047 L 0.0078125 25.138672 A 18.5 6.9135223 0 0 0 0.009765625 25.140625 A 18.5 6.9135223 0 0 0 18.007812 30.457031 A 18.5 6.9135223 0 0 0 36 25.150391 L 36 20.529297 A 18.5 6.9135223 0 0 1 18 25.847656 A 18.5 6.9135223 0 0 1 0 20.529297 z" style="fill:#9aaab4;fill-opacity:1;stroke:none;stroke-width:0.000999984;stroke-miterlimit:4;stroke-dasharray:none;stroke-opacity:1" id="rect1422-3-5-9-7"/>
  <path d="M 0 14.75 L 0 19.339844 L 0.017578125 19.373047 A 18.5 6.9135223 0 0 0 18.007812 24.677734 A 18.5 6.9135223 0 0 0 36 19.371094 L 36 14.75 A 18.5 6.9135223 0 0 1 18 20.068359 A 18.5 6.9135223 0 0 1 0 14.75 z" style="fill:#9aaab4;fill-opacity:1;stroke:none;stroke-width:0.000999984;stroke-miterlimit:4;stroke-dasharray:none;stroke-opacity:1" id="rect1422-3-5-9-3"/>
  <path d="M 0 9.21875 L 0 13.810547 L 0.0078125 13.828125 A 18.5 6.9135223 0 0 0 0.013671875 13.835938 A 18.5 6.9135223 0 0 0 18.007812 19.146484 A 18.5 6.9135223 0 0 0 36 13.839844 L 36 9.21875 A 18.5 6.9135223 0 0 1 18 14.537109 A 18.5 6.9135223 0 0 1 0 9.21875 z" style="fill:#9aaab4;fill-opacity:1;stroke:none;stroke-width:0.000999984;stroke-miterlimit:4;stroke-dasharray:none;stroke-opacity:1" id="rect1422-3-5-9-6"/>
</svg>